<?xml version="1.0" encoding="utf-8"?>
<!-- Generator: Adobe Illustrator 15.1.0, SVG Export Plug-In . SVG Version: 6.00 Build 0)  -->
<!DOCTYPE svg PUBLIC "-//W3C//DTD SVG 1.1//EN" "http://www.w3.org/Graphics/SVG/1.1/DTD/svg11.dtd">
<svg version="1.1" xmlns="http://www.w3.org/2000/svg" xmlns:xlink="http://www.w3.org/1999/xlink" x="0px" y="0px" width="300px"
	 height="300px" viewBox="0 0 300 300" style="enable-background:new 0 0 300 300;" xml:space="preserve">
<style type="text/css">
<![CDATA[
	#Layer_1 {fill: #FFFFFF;}
	.st0{font-family:'MyriadPro-Regular';}
	.st1{display:inline;}
	.st2{font-size:12;}
	.st3{display:none;}
]]>
</style>
<g id="Layer_1">
	<path d="M205,98.9h-3.9V95c0-28.8-23.5-43.2-51.3-43.2c-26.1,0-50.9,14.4-50.9,43.2v3.9H95c-28.8,0-43.2,24.8-43.2,50.9
		c0,27.8,14.4,51.3,43.2,51.3h3.9v3.9c0,28.8,24.8,43.2,50.9,43.2c27.8,0,51.3-14.4,51.3-43.2v-3.9h3.9c28.8,0,43.2-23.5,43.2-51.3
		C248.2,123.7,233.8,98.9,205,98.9z M141.5,93.4c0-4.7,1.7-10.1,8.4-10.1c6.7,0,8.7,5.4,8.7,10.1v16.3c-3.9,3.4-7.2,7.3-10.2,11.5
		c-4.2-4.4-6.9-9.7-6.9-16.7V93.4z M93.4,158.5c-4.7,0-10.1-2-10.1-8.7c0-6.7,5.4-8.4,10.1-8.4h16.3c4.2,4.8,9.2,8.8,14.4,12.3
		c-4.1,3-8.8,4.8-14.7,4.8H93.4z M158.5,206.6c0,4.7-2,10.1-8.7,10.1c-6.7,0-8.4-5.4-8.4-10.1v-13.3c6-3.6,10.8-8.3,14.8-13.3
		c1.4,3.1,2.3,6.5,2.3,10.5V206.6z M206.6,158.5h-13.3c-3.1-5.2-6.9-9.4-11.1-13c3.7-2.6,8-4.1,13.3-4.1h11.1
		c4.7,0,10.1,1.7,10.1,8.4C216.7,156.5,211.3,158.5,206.6,158.5z"/>
</g>
<g id="nyt_x5F_exporter_x5F_info" class="st3">
	<text transform="matrix(1 0 0 1 -680 120)" class="st1 st0 st2">&lt;nyt_prefs&gt;  &lt;nyt_prefix&gt;&lt;/nyt_prefix&gt;  &lt;nyt_suffix&gt;&lt;/nyt_suffix&gt;  &lt;nyt_base_path&gt;file:///Users/jaguil1/Desktop/Icons/coolSVGS&lt;/nyt_base_path&gt;  &lt;nyt_scaling&gt;100&lt;/nyt_scaling&gt;  &lt;nyt_transparency&gt;true&lt;/nyt_transparency&gt;  &lt;nyt_embedImage&gt;true&lt;/nyt_embedImage&gt;  &lt;nyt_embedFont&gt;true&lt;/nyt_embedFont&gt;  &lt;nyt_trimEdges&gt;true&lt;/nyt_trimEdges&gt;  &lt;nyt_innerPadding&gt;false&lt;/nyt_innerPadding&gt;  &lt;nyt_format&gt;SVG&lt;/nyt_format&gt;  &lt;nyt_artboards&gt;all&lt;/nyt_artboards&gt;  &lt;nyt_layers&gt;1&lt;/nyt_layers&gt;  &lt;nyt_exportArtboards&gt;false&lt;/nyt_exportArtboards&gt;  &lt;nyt_ignoreWarnings&gt;false&lt;/nyt_ignoreWarnings&gt;&lt;/nyt_prefs&gt;</text>
</g>
</svg>
