<?xml version="1.0" encoding="utf-8"?>
<!-- Generator: Adobe Illustrator 15.1.0, SVG Export Plug-In . SVG Version: 6.00 Build 0)  -->
<!DOCTYPE svg PUBLIC "-//W3C//DTD SVG 1.1//EN" "http://www.w3.org/Graphics/SVG/1.1/DTD/svg11.dtd">
<svg version="1.1" id="Layer_1" xmlns="http://www.w3.org/2000/svg" xmlns:xlink="http://www.w3.org/1999/xlink" x="0px" y="0px"
	 width="300px" height="300px" viewBox="0 0 300 300" style="enable-background:new 0 0 300 300;" xml:space="preserve">
<g>
	<g>
		<g>
			<path d="M170.1,88.3v51.2H64.3v39.7H48.7V79.8h15.6v39.7h90.3V88.3H170.1z M217.4,119.5v20h-25.2v-20H217.4z"/>
		</g>
	</g>
	<g>
		<g>
			<path d="M129.9,209.1v-51.2h105.9v-39.7h15.6v99.4h-15.6v-39.7h-90.3v31.2H129.9z M82.6,177.9v-20h25.2v20H82.6z"/>
		</g>
	</g>
	<g>
		<g>
			<path d="M186.2,48.3h22.5v19.6h-22.5V48.3z M49.2,48.3h115.5v19.6H49.2V48.3z"/>
		</g>
	</g>
	<g>
		<g>
			<path d="M113.5,251.7H91v-19.6h22.5V251.7z M250.5,251.7H134.9v-19.6h115.5V251.7z"/>
		</g>
	</g>
</g>
</svg>
