<?xml version="1.0" encoding="utf-8"?>
<!-- Generator: Adobe Illustrator 15.1.0, SVG Export Plug-In . SVG Version: 6.00 Build 0)  -->
<!DOCTYPE svg PUBLIC "-//W3C//DTD SVG 1.1//EN" "http://www.w3.org/Graphics/SVG/1.1/DTD/svg11.dtd">
<svg version="1.1" id="Layer_1" xmlns="http://www.w3.org/2000/svg" xmlns:xlink="http://www.w3.org/1999/xlink" x="0px" y="0px"
	 width="300px" height="300px" viewBox="0 0 300 300" style="enable-background:new 0 0 300 300;" xml:space="preserve">
<g>
	<polygon points="106,176.9 106,173.8 104.3,172.8 106,171.9 106,152 20,152 20,200 107,200 107,222.6 150,198.4 109.4,175.4 	"/>
	<polygon points="278,151 278,104 192,104 192,77.4 150.1,102.2 188.6,124.6 191,123.1 191,126.2 192.7,127.2 191,128.1 191,152 
		192,152 192,151 	"/>
	<polygon points="107,128.1 105.3,127.2 107,126.2 107,123.1 111,124.6 149.5,102.2 106,77.4 106,104 20,104 20,151 106,151 
		106,152 107,152 	"/>
	<polygon points="193.7,172.8 192,173.8 192,176.9 190.2,175.4 149.6,198.4 191,222.6 191,200 278,200 278,152 192,152 192,171.9 	
		"/>
</g>
</svg>
