<?xml version="1.0" encoding="utf-8"?>
<!-- Generator: Adobe Illustrator 15.1.0, SVG Export Plug-In . SVG Version: 6.00 Build 0)  -->
<!DOCTYPE svg PUBLIC "-//W3C//DTD SVG 1.1//EN" "http://www.w3.org/Graphics/SVG/1.1/DTD/svg11.dtd">
<svg version="1.1" id="Layer_1" xmlns="http://www.w3.org/2000/svg" xmlns:xlink="http://www.w3.org/1999/xlink" x="0px" y="0px"
	 width="300px" height="300px" viewBox="0 0 300 300" style="enable-background:new 0 0 300 300;" xml:space="preserve">
<g>
	<g>
		<path d="M168,133.7c2.1-0.2,4.4-0.3,6.8-0.3c4.1,0,8.1,0.2,12,0.6v-15.6H168V133.7z"/>
		<path d="M199.8,60v-6.7c-10.2-2-20.1-3.1-29.8-3.3v10h9.6v-6.1h3.9V60H199.8z"/>
		<path d="M199.8,136.1c3.4,0.8,6.6,1.7,9.8,2.8l10.7-20.4h-20.5V136.1z"/>
		<path d="M220,58.6v48.6h6.2l19.3-36.8C238.3,65.8,229.8,61.8,220,58.6z"/>
	</g>
	<g>
		<path d="M59.5,152.8c0.1,8.3,1.1,16.2,3,23.8h10.3v16.8h18.9v-5.5h12.9v-35H88.2v23.8h-3.9v-23.8h-9.6v4h-3.9v-4H59.5z"/>
		<path d="M91.6,204.6H74.7c3.9,6,8.6,11.6,14,16.9c0.9,0.9,1.9,1.8,2.9,2.6V204.6z"/>
	</g>
	<g>
		<path d="M204.5,156.5c-1.3,0.7-2.7,1.3-4.1,1.8v51.7h8.4v11.3h-28.7v25.9h-12.9v-25.9h-18.9v28c4.5,0.4,9.2,0.6,14,0.6
			c13.1,0,26.9-1.8,41.3-5.5c14.4-3.6,26.7-8.5,36.8-14.6L204.5,156.5z"/>
		<path d="M99.5,146.2v-13.1h20.3v60.2h7.5v0h21.1v16.8h18.9v-5.5h12.9v-35h-16.3v23.8h-3.9v-23.8h-9.6v4h-3.9v-4h-15.8v-6.7h15.8
			v-4.6h-4.6V90.4h21.1v16.8h18.9v-5.5h12.9v-35h-16.3v23.8h-3.9V66.7h-9.6v4h-3.9v-4h-15.8V60h15.8V50
			c-20.6,0.2-38.9,4.6-54.7,13.2v23.8H82v-5.5c-17.3,17.5-26.5,39.1-27.5,64.7h11.2v-25.8h3.9v25.8h9.6v-6.1h3.9v6.1H99.5z"/>
		<path d="M159.9,162.5c-3.7-0.6-6.9-1.6-9.6-3v3.4h9.6V162.5z"/>
		<path d="M127.2,204.6H99.5v25.9h-5c9.6,6.9,20.6,12,32.8,15.2V204.6z"/>
	</g>
</g>
</svg>
