<?xml version="1.0" encoding="utf-8"?>
<!-- Generator: Adobe Illustrator 15.1.0, SVG Export Plug-In . SVG Version: 6.00 Build 0)  -->
<!DOCTYPE svg PUBLIC "-//W3C//DTD SVG 1.1//EN" "http://www.w3.org/Graphics/SVG/1.1/DTD/svg11.dtd">
<svg version="1.1" id="Layer_1" xmlns="http://www.w3.org/2000/svg" xmlns:xlink="http://www.w3.org/1999/xlink" x="0px" y="0px"
	 width="300px" height="300px" viewBox="0 0 300 300" style="enable-background:new 0 0 300 300;" xml:space="preserve">
<g>
	<polygon points="183.9,154.4 137.5,132 137.5,176.8 	"/>
	<path d="M229.8,135.9v-20.7c0-20.3-2-35.3-6.1-44.9c-4.1-9.6-12.6-17.7-25.6-24.1c-13-6.4-29.4-9.7-49.4-9.7
		c-14.7,0-27.7,2.1-39,6.2C98.4,47,89.6,52.7,83.2,60C76.8,67.2,73,74.8,71.7,82.6c-0.7,4.4-1.2,10-1.5,16.8l67.3,32.5V99.9
		c0-11,0.8-18.2,2.3-21.5c1.5-3.3,5-5,10.6-5c4.9,0,8.1,1.4,9.6,4.1c1.5,2.7,2.2,9.6,2.2,20.6v37.8H229.8z"/>
	<path d="M76.1,229.5c4.2,10.6,12.7,18.9,25.6,24.9c12.9,6,29.2,9,49.1,9c19.1,0,35.1-3.5,48.2-10.6c13-7.1,21.5-15.4,25.3-24.8
		c3.8-9.4,5.7-25.4,5.7-47.9v-8.5h-67.7v27.4c0,12-0.8,19.5-2.3,22.8c-1.6,3.2-4.8,4.9-9.9,4.9c-5.3,0-8.6-1.6-10.1-4.8
		c-1.5-3.2-2.3-10.1-2.3-20.7v-24.2l-66.2,32C72.3,217.1,73.9,224,76.1,229.5z"/>
</g>
</svg>
