<?xml version="1.0" encoding="utf-8"?>
<!-- Generator: Adobe Illustrator 15.1.0, SVG Export Plug-In . SVG Version: 6.00 Build 0)  -->
<!DOCTYPE svg PUBLIC "-//W3C//DTD SVG 1.1//EN" "http://www.w3.org/Graphics/SVG/1.1/DTD/svg11.dtd">
<svg version="1.1" id="Layer_1" xmlns="http://www.w3.org/2000/svg" xmlns:xlink="http://www.w3.org/1999/xlink" x="0px" y="0px"
	 width="300px" height="300px" viewBox="0 0 300 300" style="enable-background:new 0 0 300 300;" xml:space="preserve">
<path d="M278.2,160.4c-3.3-2.5-7.9-4.4-13.6-5.8c-0.1-6.5-2.5-11.5-7.2-15c-4.8-3.6-12.3-6.1-22.4-7.5c-2.3-0.3-6.2-0.6-11.6-1
	c3.5-0.7,7.7-1,12.5-1c12.4,0,24.6,3,36.5,9.1l8.1-9c-11.7-7.9-26.3-11.9-43.6-11.9c-12.9,0-22.9,2.2-30,6.6
	c-2.1,1.3-3.9,2.7-5.3,4.3c-2-0.4-3.7-0.8-5-1.2c-4.7-1.6-7-4.2-7-7.8c0-3.4,2.2-6.1,6.6-8c4.4-1.9,10.7-2.9,18.9-2.9
	c12.4,0,24.6,3,36.5,9.1l8.1-9c-11.7-7.9-26.3-11.9-43.6-11.9c-12.9,0-22.9,2.2-30,6.6c-3.3,2-5.8,4.4-7.5,7.1
	c-1.2-1.1-2.5-2.2-3.9-3.3c-9.5-7.3-21.3-10.9-35.3-10.9c-13.9,0-25.7,3.6-35.4,10.9c-0.2,0.2-0.5,0.4-0.7,0.6
	c-9.8-7.6-22.1-11.5-37.1-11.5c-14,0-25.8,3.6-35.3,10.8c-10.9,8.2-16.4,18.8-16.4,31.8c0,13.2,5.4,23.9,16.1,32
	c2.5,1.9,5.1,3.5,7.9,4.8c2.7,6.1,7,11.5,13,16C61,199.5,72.8,203,87,203c10.2,0,18.9-1.5,26.2-4.5c3.9-1.6,7.6-3.8,11-6.4
	c0.1,0.1,0.2,0.2,0.3,0.2c9.5,7.2,21.4,10.8,35.6,10.8c14.1,0,25.9-3.6,35.4-10.7c0.4-0.3,0.8-0.6,1.2-1c11.1,7.5,26,11.2,44.7,11.2
	c14.2,0,25-2.3,32.6-7c7.6-4.7,11.3-11.3,11.3-19.8C285.4,169.2,283,164.1,278.2,160.4z M50.1,167.5c-0.5-2.3-0.8-4.7-0.8-7.2
	c0-8.8,3.5-16.1,10.5-21.8c7-5.7,16.1-8.6,27.2-8.6c0.5,0,1,0,1.6,0c-0.7,3-1.1,6.2-1.1,9.6c0,8.6,2.3,16.1,6.9,22.5
	c-7.4,5.2-16.5,7.8-27.5,7.8C60.7,169.9,55.1,169.1,50.1,167.5z M108.4,158.5c-4.7-5.1-7-11.4-7-18.9c0-2.7,0.3-5.3,1-7.7
	c4.9,1.3,9.3,3.4,13.1,6.1C111.1,143.9,108.7,150.8,108.4,158.5z M123.1,167.7c-0.5-2.3-0.8-4.7-0.8-7.3c0-8.6,3.3-15.7,10-21.4
	l1.2-0.4c-0.1-0.1-0.2-0.2-0.3-0.3c7-5.6,16-8.3,27-8.3c5.9,0,11.2,0.9,16,2.5c0.6,2.2,0.8,4.6,0.8,7.1c0,9-3.4,16.4-10.3,22
	c-6.9,5.6-16,8.5-27.4,8.5C133.3,170.1,127.9,169.3,123.1,167.7z M190.9,142c4.7,5.1,7,11.3,7,18.5c0,2.1-0.2,4.2-0.6,6.1
	c-4.3-1.4-8.5-3.1-12.6-5.3C188.5,155.6,190.5,149.2,190.9,142z M211.8,160.7c5.4,1.5,12.6,2.5,21.8,3.1c4.4,0.3,8.3,0.6,11.8,0.8
	c-0.8,0.6-1.7,1.1-2.7,1.7c-5.2,2.6-12.5,3.9-21.9,3.9c-3.3,0-6.6-0.2-9.9-0.6C211.5,166.7,211.8,163.8,211.8,160.7z M240.3,145.7
	c4.9,1.3,7.9,3.5,9.2,6.7c-3.9-0.3-9.1-0.7-15.7-1.2c-7.6-0.4-13-1.3-16.4-2.4c-3.8-1.3-6.1-3.3-6.8-6c0.7,0.1,1.3,0.1,2,0.1
	C227.7,143.9,236.9,144.8,240.3,145.7z M165,116.6c0.6,0.4,1.2,0.9,1.7,1.3c-2.1-0.2-4.3-0.3-6.6-0.3c-13.9,0-25.7,3.6-35.4,10.9
	c-0.2,0.2-0.5,0.4-0.7,0.6c-4.6-3.6-9.8-6.4-15.6-8.3c0.9-0.9,1.8-1.9,2.9-2.7l1.2-0.4c-0.1-0.1-0.2-0.2-0.3-0.3
	c7-5.6,16-8.3,27-8.3C149.6,109.1,158.1,111.6,165,116.6z M28.5,139.5c0-8.8,3.5-16.1,10.5-21.8c7-5.7,16.1-8.6,27.2-8.6
	c11.5,0,21,2.7,28.5,8c-0.2,0.3-0.5,0.6-0.7,0.9c-2.2-0.2-4.5-0.3-6.9-0.3c-14,0-25.8,3.6-35.3,10.8c-10.3,7.8-15.8,17.8-16.3,29.9
	C30.8,153.2,28.5,146.9,28.5,139.5z M87.8,190.8c-11.8,0-21.2-2.8-28.1-8.4c-0.2-0.2-0.4-0.4-0.6-0.5c2.3,0.2,4.7,0.3,7.1,0.3
	c10.2,0,18.9-1.5,26.2-4.5c3.9-1.6,7.6-3.8,11-6.4c0.1,0.1,0.2,0.2,0.3,0.2c2.4,1.8,5,3.4,7.8,4.8c1,2.3,2.3,4.5,3.8,6.6
	C107.9,188.2,98.8,190.8,87.8,190.8z M187.6,182.5c-6.9,5.6-16,8.5-27.4,8.5c-11.5,0-20.7-2.8-27.6-8.4c-0.2-0.2-0.4-0.4-0.7-0.6
	c2.4,0.2,4.9,0.3,7.4,0.3c14.1,0,25.9-3.6,35.4-10.7c0.4-0.3,0.8-0.6,1.2-1c4.7,3.1,10,5.6,16,7.4
	C190.7,179.6,189.3,181.1,187.6,182.5z M263.5,187.1c-5.2,2.6-12.5,3.9-21.9,3.9c-12.8,0-24.8-3-36-8.9c0.2-0.4,0.5-0.7,0.7-1.1
	c4.5,0.6,9.3,0.8,14.4,0.8c14.2,0,25-2.3,32.6-7c3.7-2.3,6.5-5,8.3-8.2c6.3,1.7,9.4,5.1,9.4,10.1C271,181.2,268.5,184.6,263.5,187.1
	z"/>
</svg>
