<?xml version="1.0" encoding="utf-8"?>
<!-- Generator: Adobe Illustrator 15.1.0, SVG Export Plug-In . SVG Version: 6.00 Build 0)  -->
<!DOCTYPE svg PUBLIC "-//W3C//DTD SVG 1.1//EN" "http://www.w3.org/Graphics/SVG/1.1/DTD/svg11.dtd">
<svg version="1.1" id="Layer_1" xmlns="http://www.w3.org/2000/svg" xmlns:xlink="http://www.w3.org/1999/xlink" x="0px" y="0px"
	 width="300px" height="300px" viewBox="0 0 300 300" style="enable-background:new 0 0 300 300;" xml:space="preserve">
<path d="M234.3,227.3c-37.8,0-66.1-30.6-66.1-68.5c0-37.8,28.3-68.5,66.1-68.5c9.3,0,18.2,1.9,26.4,5.3l-4.3-47l-96.6,54.6
	L39.4,56.8l13.3,36.7c5-1.2,10.3-1.8,15.7-1.8c37.8,0,73.1,30.7,73.1,68.5c0,37.8-35.3,68.5-73.1,68.5c-4.6,0-9.1-0.5-13.4-1.3
	l5.3,23.8l50.3,0.4l42-27.3l101.4,27.3l3.5-28.2C250.2,225.8,242.4,227.3,234.3,227.3z"/>
</svg>
