<?xml version="1.0" encoding="utf-8"?>
<!-- Generator: Adobe Illustrator 15.1.0, SVG Export Plug-In . SVG Version: 6.00 Build 0)  -->
<!DOCTYPE svg PUBLIC "-//W3C//DTD SVG 1.1//EN" "http://www.w3.org/Graphics/SVG/1.1/DTD/svg11.dtd">
<svg version="1.1" id="Layer_1" xmlns="http://www.w3.org/2000/svg" xmlns:xlink="http://www.w3.org/1999/xlink" x="0px" y="0px"
	 width="300px" height="300px" viewBox="0 0 300 300" style="enable-background:new 0 0 300 300;" xml:space="preserve">
<path d="M257.3,124.5c-0.3-16.1-5.5-29-15.8-38.7c-2.3-2.2-4.9-4.1-7.6-5.9c-2.4-4.5-5.5-8.4-9.3-12C214,57.9,199.7,53,181.7,53H147
	H41.9H36v177h5.9H51v18h7.8H88h81.5c26.1,0,48.1-8.2,65.8-23.8c19-16.7,28.5-37.9,28.5-63.1C263.8,147.7,261.6,135.3,257.3,124.5z
	 M166.4,98c15.9,0,29.3,3.4,40.3,11c1.2,2.1,2.3,4.7,3.3,6.9c-2.5,13.8-13.6,21.1-33.3,21.1H87V98H166.4z M155,203H87v-23h106
	c3.8,0,7.3-0.2,10.7-0.5c-1.7,2.2-3.4,4.5-5.5,6.5C187,197.3,172.6,203,155,203z"/>
</svg>
