<?xml version="1.0" encoding="utf-8"?>
<!-- Generator: Adobe Illustrator 15.1.0, SVG Export Plug-In . SVG Version: 6.00 Build 0)  -->
<!DOCTYPE svg PUBLIC "-//W3C//DTD SVG 1.1//EN" "http://www.w3.org/Graphics/SVG/1.1/DTD/svg11.dtd">
<svg version="1.1" id="Layer_1" xmlns="http://www.w3.org/2000/svg" xmlns:xlink="http://www.w3.org/1999/xlink" x="0px" y="0px"
	 width="300px" height="300px" viewBox="0 0 300 300" style="enable-background:new 0 0 300 300;" xml:space="preserve">
<path d="M201,79.8h-17.6l5.6-11.6c-8.6-0.2-15.5-7.3-15.5-15.9H83.5v18.9h36.9c4.7-7.1,12.7-11.8,21.8-11.8
	c9.1,0,17.2,4.7,21.8,11.8h1.5v0.5l-0.5,1.1c1.2,2.2,2.1,4.6,2.7,7.1h-56.7v18.9H148c4.4-6.7,11.8-11.3,20.3-11.8
	c-0.7,12.4-10,22.4-22,24.3l-53.4,109h23.5l62.9-131.5c5.1,2,9.5,5.5,12.5,10.1h1.5v0.5l-0.5,1.1c2.1,3.7,3.3,8.1,3.3,12.6
	c0,13.1-9.6,23.8-22.1,25.8l-53.4,109h23.5l72.6-152C207.9,95.5,201,88.5,201,79.8z"/>
</svg>
