<?xml version="1.0" encoding="utf-8"?>
<!-- Generator: Adobe Illustrator 15.1.0, SVG Export Plug-In . SVG Version: 6.00 Build 0)  -->
<!DOCTYPE svg PUBLIC "-//W3C//DTD SVG 1.1//EN" "http://www.w3.org/Graphics/SVG/1.1/DTD/svg11.dtd">
<svg version="1.1" id="Layer_1" xmlns="http://www.w3.org/2000/svg" xmlns:xlink="http://www.w3.org/1999/xlink" x="0px" y="0px"
	 width="300px" height="300px" viewBox="0 0 300 300" style="enable-background:new 0 0 300 300;" xml:space="preserve">
<g>
	<polygon points="196.9,182.9 223,182.9 196.9,152.9 196.9,171 	"/>
	<rect x="128.8" y="211" width="13.2" height="41.4"/>
	<polygon points="142,47.6 128.8,47.6 142,62.6 	"/>
	<polygon points="73.9,171 73.9,162 55.4,182.9 73.9,182.9 	"/>
	<polygon points="142,129.6 129.3,129.6 142,144 	"/>
	<polygon points="73.9,80.6 55.4,101.4 73.9,101.4 	"/>
	<polygon points="142,86.7 128.8,71.5 128.8,101.4 142,101.4 	"/>
	<polygon points="244.6,101.4 246.2,103.2 246.2,101.4 	"/>
	<rect x="196.9" y="211" width="29.2" height="41.4"/>
	<polygon points="197.4,129.6 226.1,162 226.1,129.6 	"/>
	<polygon points="196.9,47.6 226.1,80.6 226.1,47.6 	"/>
	<polygon points="196.9,71.5 196.9,101.4 223,101.4 	"/>
	<polygon points="142,171 142,168.1 128.8,152.9 128.8,171 128.8,182.9 142,182.9 	"/>
	<polygon points="246.2,184.6 246.2,182.9 244.6,182.9 	"/>
	<polygon points="171.2,47.6 158,47.6 158,62.6 	"/>
	<polygon points="171.2,171 171.2,152.9 158,168.1 158,171 158,182.9 171.2,182.9 	"/>
	<polygon points="171.2,71.5 158,86.7 158,101.4 171.2,101.4 	"/>
	<polygon points="158,144 170.7,129.6 158,129.6 	"/>
	<polygon points="73.9,47.6 73.9,80.6 103.1,47.6 	"/>
	<rect x="158" y="211" width="13.2" height="41.4"/>
	<polygon points="226.1,171 226.1,182.9 244.6,182.9 226.1,162 	"/>
	<rect x="73.9" y="211" width="29.2" height="41.4"/>
	<polygon points="226.1,101.4 244.6,101.4 226.1,80.6 	"/>
	<polygon points="77,101.4 103.1,101.4 103.1,71.5 	"/>
	<polygon points="53.8,101.4 53.8,103.2 55.4,101.4 	"/>
	<polygon points="77,182.9 103.1,182.9 103.1,171 103.1,152.9 	"/>
	<polygon points="73.9,129.6 73.9,162 102.6,129.6 	"/>
	<polygon points="53.8,182.9 53.8,184.6 55.4,182.9 	"/>
</g>
</svg>
