<?xml version="1.0" encoding="utf-8"?>
<!-- Generator: Adobe Illustrator 15.1.0, SVG Export Plug-In . SVG Version: 6.00 Build 0)  -->
<!DOCTYPE svg PUBLIC "-//W3C//DTD SVG 1.1//EN" "http://www.w3.org/Graphics/SVG/1.1/DTD/svg11.dtd">
<svg version="1.1" id="Layer_1" xmlns="http://www.w3.org/2000/svg" xmlns:xlink="http://www.w3.org/1999/xlink" x="0px" y="0px"
	 width="300px" height="300px" viewBox="0 0 300 300" style="enable-background:new 0 0 300 300;" xml:space="preserve">
<g>
	<path d="M180.7,120.3v-7.6h27.1c-0.2-1.1-0.6-2.7-1.3-4.9c0-0.1-0.1-0.4-0.3-1h-25.6v-7.6h22.8c-0.9-2.2-1.9-4.1-2.8-5.7h-20v-7.6
		h14.9c-2.4-2.7-4.3-4.6-5.7-5.8h-9.2v-6.3c-5.4-2.9-10.7-4.8-16-5.7c-5.3-0.9-13.9-1.4-25.7-1.4h-9.9v33.8h24.6l-24.6,26.6v100.5
		H72.4V220h24.7v-5.8H72.4v-7.6h24.7v-5.7H72.4v-7.6h24.7v-5.8H73.4l-6.7,7.3v38.8h83c6.6,0,11.2-0.3,13.9-1v-32.8h-22.7l22.7-25.1
		V73.6c4,0.5,7.8,1.7,11.4,3.6v84.6l5.7-6.3v-2.7h2.4l5.1-5.7h-7.5v-7.6h14.4l5.3-5.8h-19.7V126h26.6l2.6-2.9
		c-0.2-1.5-0.4-2.4-0.4-2.8H180.7z"/>
	<path d="M146.3,55.1c15.8,0,27.3,0.9,34.8,2.6c9.5,2.2,18.4,6.2,26.5,11.8c8.1,5.7,15.2,12.6,21.1,20.9c1.6,2.2,3.1,4.5,4.5,6.8
		l3.1-3.4V48.4H64.6v6.8H146.3z"/>
	<polygon points="66.7,100.5 72.4,100.5 72.4,99.2 97.1,99.2 97.1,93.5 72.4,93.5 72.4,85.8 97.1,85.8 97.1,80 72.4,80 72.4,72.4 
		97.1,72.4 97.1,66.7 64.6,66.7 64.6,72.4 66.7,72.4 	"/>
	<polygon points="97.1,174 85.7,174 80.4,179.7 97.1,179.7 	"/>
	<path d="M225,214.2h-44.3v-7.6h20c0.4-0.7,0.7-1.4,1-2c0.3-0.6,0.6-1.2,0.8-1.7l0.4-1.1c0-0.2,0.1-0.5,0.4-0.8h-22.7v-1.3H175V220
		h44.5c-7,6.8-13.6,11.9-19.8,15.5c-6.2,3.6-12.9,6-20.4,7.4c-7.4,1.3-16.9,2-28.5,2H59.2v6.8h181.6v-52.1h-6.3
		C231.8,204.4,228.7,209.3,225,214.2z"/>
	<polygon points="97.1,161.7 92.8,166.3 97.1,166.3 	"/>
</g>
</svg>
