<?xml version="1.0" encoding="utf-8"?>
<!-- Generator: Adobe Illustrator 15.1.0, SVG Export Plug-In . SVG Version: 6.00 Build 0)  -->
<!DOCTYPE svg PUBLIC "-//W3C//DTD SVG 1.1//EN" "http://www.w3.org/Graphics/SVG/1.1/DTD/svg11.dtd">
<svg version="1.1" id="Layer_1" xmlns="http://www.w3.org/2000/svg" xmlns:xlink="http://www.w3.org/1999/xlink" x="0px" y="0px"
	 width="300px" height="300px" viewBox="0 0 300 300" style="enable-background:new 0 0 300 300;" xml:space="preserve">
<g>
	<path d="M160.4,151.8c-3,6.3-6.1,12.6-9.1,18.9h12.8C162.9,164.3,161.6,158.1,160.4,151.8z"/>
	<path d="M207.3,49.3C202,61.4,196.5,73.5,191,85.6h22.9c2.8-11.4,5.4-22.8,7.8-34.2C216.9,50.7,212.1,50,207.3,49.3z"/>
	<path d="M131.3,100c0.9-0.1,1.7-0.1,2.6-0.2V85.6h15.9c-2.1-16.1-3.7-32.3-5.1-48.5h-3.6c0,0.1-0.1,0.1-0.1,0.2
		C137.9,58.2,134.7,79.1,131.3,100z"/>
	<path d="M176.6,44.2c-0.3-0.1-4-0.9-7.1-1.9c0.7,9.1,1.6,18.1,2.6,27.2c3.6-8.1,7.1-16.2,10.6-24.3
		C180.7,44.8,178.6,44.5,176.6,44.2z"/>
	<path d="M179.6,125.1c2.4,15.2,5.1,30.4,8.2,45.6h1.6c5.1-15.2,9.8-30.3,14.1-45.6H179.6z"/>
	<path d="M209.1,45.1c4.5,0.8,9,1.5,13.5,2.2c0.7-3.2,1.4-6.4,2.1-9.6c-5.2,1.2-9.9,2.3-13.8,3.3C210.3,42.3,209.7,43.7,209.1,45.1z
		"/>
	<path d="M146.5,125.1h-12.6v-17.8c-1.3,0.1-2.6,0.2-3.9,0.3c-4.9,28.9-10.4,57.8-16.6,86.6C124.7,171.2,135.7,148.1,146.5,125.1z"
		/>
	<path d="M105.2,262.9h28.7v-56.5C124.5,225.2,114.9,244.1,105.2,262.9z"/>
	<path d="M169.2,38.7c2-0.5,4-1,6-1.5h-6.1C169.2,37.7,169.2,38.2,169.2,38.7z"/>
	<rect x="233.4" y="37.1" width="2.8" height="48.5"/>
	<path d="M215.2,170.6h6.1v-19.1C219.3,157.9,217.3,164.3,215.2,170.6z"/>
	<path d="M113.5,37.1H63.8v59.7C81.4,77.2,97.9,57.3,113.5,37.1z"/>
	<path d="M110.4,75.3c-8,9.5-16.2,19-24.7,28.4c6.8-0.6,13.5-1.2,20.3-1.8C107.6,93,109,84.2,110.4,75.3z"/>
	<path d="M104.7,109.8c-9,0.8-17.9,1.7-26.9,2.6c-4.6,5-9.3,9.9-14,14.9v135.6h7.9C85.1,212,95.8,160.9,104.7,109.8z"/>
</g>
</svg>
