<?xml version="1.0" encoding="utf-8"?>
<!-- Generator: Adobe Illustrator 15.1.0, SVG Export Plug-In . SVG Version: 6.00 Build 0)  -->
<!DOCTYPE svg PUBLIC "-//W3C//DTD SVG 1.1//EN" "http://www.w3.org/Graphics/SVG/1.1/DTD/svg11.dtd">
<svg version="1.1" id="Layer_1" xmlns="http://www.w3.org/2000/svg" xmlns:xlink="http://www.w3.org/1999/xlink" x="0px" y="0px"
	 width="300px" height="300px" viewBox="0 0 300 300" style="enable-background:new 0 0 300 300;" xml:space="preserve">
<g>
	<polygon points="116.1,178.9 136.1,178.9 116.2,158.9 	"/>
	<polygon points="259.5,121.1 259.5,84.8 216.5,84.8 216.5,34.6 183.9,34.6 183.9,84.8 166,84.8 216.5,135.7 216.5,121.1 	"/>
	<polygon points="116.3,121.1 163.9,121.1 127.7,84.8 116.4,84.8 	"/>
	<polygon points="78.5,121.1 83.5,121.1 83.5,84.8 40.5,84.8 40.5,121.1 83.5,164.3 83.5,126.1 	"/>
	<polygon points="221.5,178.9 216.5,178.9 216.5,215.2 259.5,215.2 259.5,178.9 216.5,135.7 216.5,173.9 	"/>
	<polygon points="116.4,73.5 127.7,84.8 166,84.8 116.1,34.6 83.5,34.6 83.5,84.8 116.4,84.8 	"/>
	<polygon points="83.5,178.9 40.5,178.9 40.5,215.2 83.5,215.2 83.5,265.4 116.1,265.4 116.1,215.2 134,215.2 83.5,164.3 	"/>
	<polygon points="183.6,226.5 172.3,215.2 134,215.2 183.9,265.4 216.5,265.4 216.5,215.2 183.6,215.2 	"/>
	<polygon points="216.5,178.9 216.5,173.9 183.8,141.1 183.7,178.9 	"/>
	<polygon points="172.3,215.2 183.6,215.2 183.7,178.9 136.1,178.9 	"/>
	<polygon points="83.5,121.1 83.5,126.1 116.2,158.9 116.3,121.1 	"/>
	<polygon points="183.9,121.1 163.9,121.1 183.8,141.1 	"/>
</g>
</svg>
