<?xml version="1.0" encoding="utf-8"?>
<!-- Generator: Adobe Illustrator 15.1.0, SVG Export Plug-In . SVG Version: 6.00 Build 0)  -->
<!DOCTYPE svg PUBLIC "-//W3C//DTD SVG 1.1//EN" "http://www.w3.org/Graphics/SVG/1.1/DTD/svg11.dtd">
<svg version="1.1" id="Layer_1" xmlns="http://www.w3.org/2000/svg" xmlns:xlink="http://www.w3.org/1999/xlink" x="0px" y="0px"
	 width="300px" height="300px" viewBox="0 0 300 300" style="enable-background:new 0 0 300 300;" xml:space="preserve">
<path d="M229.8,69.6c-21.8-21.9-48.4-32.9-79.9-32.9c-31.4,0-57.9,11-79.7,32.9c-21.8,21.9-32.7,48.6-32.7,80.2
	c0,31.6,10.9,58.5,32.7,80.5c21.8,22,48.4,33,79.7,33c31.4,0,58.1-11,79.9-33c21.8-22,32.7-48.8,32.7-80.5
	C262.5,118.2,251.6,91.5,229.8,69.6z M127.8,50.3h43.5v27.8h-43.5V50.3z M171.3,246.5h-43.5V88.9h43.5v49.8c0.3,1.7,0.5,3.4,0.5,5.2
	c0,1.8-0.2,3.6-0.5,5.2V246.5z"/>
</svg>
