<?xml version="1.0" encoding="utf-8"?>
<!-- Generator: Adobe Illustrator 15.1.0, SVG Export Plug-In . SVG Version: 6.00 Build 0)  -->
<!DOCTYPE svg PUBLIC "-//W3C//DTD SVG 1.1//EN" "http://www.w3.org/Graphics/SVG/1.1/DTD/svg11.dtd">
<svg version="1.1" id="Layer_1" xmlns="http://www.w3.org/2000/svg" xmlns:xlink="http://www.w3.org/1999/xlink" x="0px" y="0px"
	 width="300px" height="300px" viewBox="0 0 300 300" style="enable-background:new 0 0 300 300;" xml:space="preserve">
<path d="M254.7,101.6l-4.7-1.9l-41.7-17.2l-11.8-4.9l-10-4.1L150,58.2l-30.3,12.5l-13.4,5.6L71.8,90.6l-30.7,12.7l-3.7,1.5l-0.7,0.3
	v15.8v73.2v0.8l8.5,3.5l4.7,1.9l41.7,17.2l11.8,4.9l10,4.1l36.6,15.2l30.3-12.5l13.4-5.5l34.5-14.3l30.7-12.7l3.7-1.5l0.7-0.3v-15.8
	v-73.2v-0.8L254.7,101.6z M106.3,132.5l-30.8,15.5l30.8,15.5v3.5l-37.9-19l37.9-19V132.5z M159.3,205l-11-6l-15,7.8l-7.3-3.5
	l0.7-0.3v-15.8v-36.7l0.8-0.5l-0.8-0.5v-35.6v-0.8l-13.2-5.5L140.7,95l11,6l15-7.8l7.3,3.5l-0.7,0.3v15.8v36.7l-0.8,0.5l0.8,0.5
	v35.6v0.8l13.2,5.5L159.3,205z M199.2,166.9v-3.5l30.8-15.4l-30.8-15.5V129l37.9,19L199.2,166.9z"/>
</svg>
