<?xml version="1.0" encoding="utf-8"?>
<!-- Generator: Adobe Illustrator 15.1.0, SVG Export Plug-In . SVG Version: 6.00 Build 0)  -->
<!DOCTYPE svg PUBLIC "-//W3C//DTD SVG 1.1//EN" "http://www.w3.org/Graphics/SVG/1.1/DTD/svg11.dtd">
<svg version="1.1" id="Layer_1" xmlns="http://www.w3.org/2000/svg" xmlns:xlink="http://www.w3.org/1999/xlink" x="0px" y="0px"
	 width="300px" height="300px" viewBox="0 0 300 300" style="enable-background:new 0 0 300 300;" xml:space="preserve">
<g>
	<g>
		<g>
			<path d="M182.8,70.9c3.8,0,7.1,1.3,9.9,4c2.7,2.6,4.1,5.9,4.1,9.7c0,3.8-1.4,7-4.1,9.7c-2.7,2.7-6,4.1-9.9,4.1
				c-3.6,0-6.7-1.4-9.5-4.2c-2.7-2.8-4.1-6-4.1-9.7c0-3.6,1.4-6.8,4.1-9.5C176,72.3,179.2,70.9,182.8,70.9z M171.2,120.5h23.3v117.8
				h-23.3V120.5z"/>
		</g>
	</g>
	<g>
		<g>
			<path d="M118.7,238.3c-3.8,0-7.1-1.3-9.9-4c-2.7-2.6-4.1-5.9-4.1-9.7c0-3.8,1.4-7,4.1-9.7c2.7-2.7,6-4.1,9.9-4.1
				c3.6,0,6.7,1.4,9.5,4.2c2.7,2.8,4.1,6,4.1,9.7c0,3.6-1.4,6.8-4.1,9.5C125.5,236.9,122.3,238.3,118.7,238.3z M130.3,188.7h-23.3
				V70.9h23.3V188.7z"/>
		</g>
	</g>
	<g>
		<polygon points="172,52.3 128,52.3 150,118.1 		"/>
		<polygon points="41.7,247.7 108.1,247.7 74.9,149.9 		"/>
		<polygon points="192,247.7 258.3,247.7 225.1,150.1 		"/>
		<polygon points="41.7,52.3 74.9,149.9 108,52.3 		"/>
		<polygon points="128,247.7 172,247.7 150,181.9 		"/>
		<polygon points="191.9,52.3 225.1,150.1 258.3,52.3 		"/>
	</g>
</g>
</svg>
