<?xml version="1.0" encoding="utf-8"?>
<!-- Generator: Adobe Illustrator 15.1.0, SVG Export Plug-In . SVG Version: 6.00 Build 0)  -->
<!DOCTYPE svg PUBLIC "-//W3C//DTD SVG 1.1//EN" "http://www.w3.org/Graphics/SVG/1.1/DTD/svg11.dtd">
<svg version="1.1" id="Layer_1" xmlns="http://www.w3.org/2000/svg" xmlns:xlink="http://www.w3.org/1999/xlink" x="0px" y="0px"
	 width="300px" height="300px" viewBox="0 0 300 300" style="enable-background:new 0 0 300 300;" xml:space="preserve">
<g>
	<g>
		<polygon points="230.5,85.9 230.5,57.1 207.7,46.5 207.7,57.9 178.3,57.9 207.7,71.4 183,82.1 207.7,82.1 207.7,96.1 		"/>
		<polygon points="153.2,82.1 153.2,57.9 130.5,57.9 69.5,57.9 69.5,82.1 130.5,82.1 		"/>
	</g>
	<g>
		<polygon points="230.5,164.6 230.5,135.8 207.7,125.2 207.7,136.6 178.3,136.6 207.7,150 183,160.8 207.7,160.8 207.7,174.8 		"/>
		<polygon points="153.2,160.8 153.2,136.6 130.5,136.6 69.5,136.6 69.5,160.8 130.5,160.8 		"/>
	</g>
	<g>
		<polygon points="230.5,243.3 230.5,214.5 207.7,203.9 207.7,215.3 178.3,215.3 207.7,228.7 183,239.5 207.7,239.5 207.7,253.5 		
			"/>
		<polygon points="153.2,239.5 153.2,215.3 130.5,215.3 69.5,215.3 69.5,239.5 130.5,239.5 		"/>
	</g>
</g>
</svg>
