<?xml version="1.0" encoding="utf-8"?>
<!-- Generator: Adobe Illustrator 15.1.0, SVG Export Plug-In . SVG Version: 6.00 Build 0)  -->
<!DOCTYPE svg PUBLIC "-//W3C//DTD SVG 1.1//EN" "http://www.w3.org/Graphics/SVG/1.1/DTD/svg11.dtd">
<svg version="1.1" id="Layer_1" xmlns="http://www.w3.org/2000/svg" xmlns:xlink="http://www.w3.org/1999/xlink" x="0px" y="0px"
	 width="300px" height="300px" viewBox="0 0 300 300" style="enable-background:new 0 0 300 300;" xml:space="preserve">
<g>
	<path d="M30,255.1h24.4l54.5-74.5c-8.3-4.3-15.5-11.2-19.4-22.1l-56.2-13.3c8.5,11.3,20.8,22.1,37,32.3l-38.5,18.3V104l74.6,17.5
		c11.6-7.7,25.1-8.9,32.3-8.9c5.5,0,12.1,0.5,18.6,1.9l31.4-42.9H62.9V44.9H30v97.9c0,0.3,0,0.5,0,0.8c0,0.2,0,0.3,0,0.4V255.1z"/>
	<path d="M270,156.4c0-0.2,0-0.3,0-0.4V44.9h-5.9L203,128.6c3,3.4,5.6,7.6,7.4,12.6l56.3,13.2c-10.8-14.1-24.8-25.2-42.1-33.1
		l43.6-20.9v95.4l-74.4-17.5c-11.6,7.9-25.3,9.1-32.5,9.1c-0.4,0-0.9,0-1.4,0l-30,41h134.1v26.7h5.9v-97.9
		C270,157,270,156.7,270,156.4z"/>
</g>
</svg>
