<?xml version="1.0" encoding="utf-8"?>
<!-- Generator: Adobe Illustrator 15.1.0, SVG Export Plug-In . SVG Version: 6.00 Build 0)  -->
<!DOCTYPE svg PUBLIC "-//W3C//DTD SVG 1.1//EN" "http://www.w3.org/Graphics/SVG/1.1/DTD/svg11.dtd">
<svg version="1.1" id="Layer_1" xmlns="http://www.w3.org/2000/svg" xmlns:xlink="http://www.w3.org/1999/xlink" x="0px" y="0px"
	 width="300px" height="300px" viewBox="0 0 300 300" style="enable-background:new 0 0 300 300;" xml:space="preserve">
<g>
	<polygon points="146.3,38.6 145.8,39.7 143.2,38.6 142.8,39.7 140.2,38.6 139.9,39.2 137,39.2 137,45.9 51.1,246.4 53.9,247.6 
		54.4,246.5 57,247.6 57.4,246.5 60,247.6 137,67.9 137,258.4 140.1,258.4 140.1,60.8 149.1,39.8 	"/>
	<polygon points="248.9,258.7 186.9,42.9 186.9,42.2 186.7,42.2 185.7,38.7 182.9,39.5 182.6,38.7 179.8,39.5 179.6,38.7 
		176.8,39.5 176.6,38.7 173.7,39.5 173.5,38.7 170.7,39.5 170.5,38.7 167.7,39.5 167.4,38.7 164.6,39.5 164.4,38.7 161.6,39.5 
		161.3,38.7 158.5,39.5 158.3,38.7 155.5,39.5 155.2,38.7 152.4,39.5 152.2,38.7 149.3,39.6 155.3,60 155.3,261.4 158.3,261.4 
		158.3,70.3 183.8,156.5 183.8,261.4 186.9,261.4 186.9,166.7 214.4,259.6 215.4,259.3 215.5,259.6 218.3,258.8 218.5,259.6 
		221.4,258.8 221.6,259.6 224.4,258.8 224.6,259.6 227.4,258.8 227.7,259.6 230.5,258.8 230.7,259.6 233.5,258.8 233.8,259.6 
		236.6,258.8 236.8,259.6 239.6,258.8 239.9,259.6 242.7,258.8 242.9,259.6 245.7,258.8 246,259.6 	"/>
</g>
</svg>
