<?xml version="1.0" encoding="utf-8"?>
<!-- Generator: Adobe Illustrator 15.1.0, SVG Export Plug-In . SVG Version: 6.00 Build 0)  -->
<!DOCTYPE svg PUBLIC "-//W3C//DTD SVG 1.1//EN" "http://www.w3.org/Graphics/SVG/1.1/DTD/svg11.dtd">
<svg version="1.1" id="Layer_1" xmlns="http://www.w3.org/2000/svg" xmlns:xlink="http://www.w3.org/1999/xlink" x="0px" y="0px"
	 width="300px" height="300px" viewBox="0 0 300 300" style="enable-background:new 0 0 300 300;" xml:space="preserve">
<g>
	<polygon points="38.6,153.7 39.7,154.2 38.6,156.8 39.7,157.2 38.6,159.8 39.2,160.1 39.2,163 45.9,163 246.4,248.9 247.6,246.1 
		246.5,245.6 247.6,243 246.5,242.6 247.6,240 67.9,163 258.4,163 258.4,159.9 60.8,159.9 39.8,150.9 	"/>
	<polygon points="258.7,51.1 42.9,113.1 42.2,113.1 42.2,113.3 38.7,114.3 39.5,117.1 38.7,117.4 39.5,120.2 38.7,120.4 39.5,123.2 
		38.7,123.4 39.5,126.3 38.7,126.5 39.5,129.3 38.7,129.5 39.5,132.3 38.7,132.6 39.5,135.4 38.7,135.6 39.5,138.4 38.7,138.7 
		39.5,141.5 38.7,141.7 39.5,144.5 38.7,144.8 39.5,147.6 38.7,147.8 39.6,150.7 60,144.7 261.4,144.7 261.4,141.7 70.3,141.7 
		156.5,116.2 261.4,116.2 261.4,113.1 166.7,113.1 259.6,85.6 259.3,84.6 259.6,84.5 258.8,81.7 259.6,81.5 258.8,78.6 259.6,78.4 
		258.8,75.6 259.6,75.4 258.8,72.6 259.6,72.3 258.8,69.5 259.6,69.3 258.8,66.5 259.6,66.2 258.8,63.4 259.6,63.2 258.8,60.4 
		259.6,60.1 258.8,57.3 259.6,57.1 258.8,54.3 259.6,54 	"/>
</g>
</svg>
