<?xml version="1.0" encoding="utf-8"?>
<!-- Generator: Adobe Illustrator 15.1.0, SVG Export Plug-In . SVG Version: 6.00 Build 0)  -->
<!DOCTYPE svg PUBLIC "-//W3C//DTD SVG 1.1//EN" "http://www.w3.org/Graphics/SVG/1.1/DTD/svg11.dtd">
<svg version="1.1" id="Layer_1" xmlns="http://www.w3.org/2000/svg" xmlns:xlink="http://www.w3.org/1999/xlink" x="0px" y="0px"
	 width="300px" height="300px" viewBox="0 0 300 300" style="enable-background:new 0 0 300 300;" xml:space="preserve">
<g>
	<polygon points="153.7,261.4 154.2,260.3 156.8,261.4 157.2,260.3 159.8,261.4 160.1,260.8 163,260.8 163,254.1 248.9,53.6 
		246.1,52.4 245.6,53.5 243,52.4 242.6,53.5 240,52.4 163,232.1 163,41.6 159.9,41.6 159.9,239.2 150.9,260.3 	"/>
	<polygon points="51.1,41.3 113.1,257.1 113.1,257.8 113.3,257.8 114.3,261.3 117.1,260.5 117.4,261.3 120.2,260.5 120.4,261.3 
		123.2,260.5 123.4,261.3 126.3,260.5 126.5,261.3 129.3,260.5 129.5,261.3 132.3,260.5 132.6,261.3 135.4,260.5 135.6,261.3 
		138.4,260.5 138.7,261.3 141.5,260.5 141.7,261.3 144.5,260.5 144.8,261.3 147.6,260.5 147.8,261.3 150.7,260.4 144.7,240 
		144.7,38.6 141.7,38.6 141.7,229.7 116.2,143.5 116.2,38.6 113.1,38.6 113.1,133.3 85.6,40.4 84.6,40.7 84.5,40.4 81.7,41.2 
		81.5,40.4 78.6,41.2 78.4,40.4 75.6,41.2 75.4,40.4 72.6,41.2 72.3,40.4 69.5,41.2 69.3,40.4 66.5,41.2 66.2,40.4 63.4,41.2 
		63.2,40.4 60.4,41.2 60.1,40.4 57.3,41.2 57.1,40.4 54.3,41.2 54,40.4 	"/>
</g>
</svg>
