<?xml version="1.0" encoding="utf-8"?>
<!-- Generator: Adobe Illustrator 15.1.0, SVG Export Plug-In . SVG Version: 6.00 Build 0)  -->
<!DOCTYPE svg PUBLIC "-//W3C//DTD SVG 1.1//EN" "http://www.w3.org/Graphics/SVG/1.1/DTD/svg11.dtd">
<svg version="1.1" id="Layer_1" xmlns="http://www.w3.org/2000/svg" xmlns:xlink="http://www.w3.org/1999/xlink" x="0px" y="0px"
	 width="300px" height="300px" viewBox="0 0 300 300" style="enable-background:new 0 0 300 300;" xml:space="preserve">
<g>
	<polygon points="261.4,146.3 260.3,145.8 261.4,143.2 260.3,142.8 261.4,140.2 260.8,139.9 260.8,137 254.1,137 53.6,51.1 
		52.4,53.9 53.5,54.4 52.4,57 53.5,57.4 52.4,60 232.1,137 41.6,137 41.6,140.1 239.2,140.1 260.3,149.1 	"/>
	<polygon points="41.3,248.9 257.1,186.9 257.8,186.9 257.8,186.7 261.3,185.7 260.5,182.9 261.3,182.6 260.5,179.8 261.3,179.6 
		260.5,176.8 261.3,176.6 260.5,173.7 261.3,173.5 260.5,170.7 261.3,170.5 260.5,167.7 261.3,167.4 260.5,164.6 261.3,164.4 
		260.5,161.6 261.3,161.3 260.5,158.5 261.3,158.3 260.5,155.5 261.3,155.2 260.5,152.4 261.3,152.2 260.4,149.3 240,155.3 
		38.6,155.3 38.6,158.3 229.7,158.3 143.5,183.8 38.6,183.8 38.6,186.9 133.3,186.9 40.4,214.4 40.7,215.4 40.4,215.5 41.2,218.3 
		40.4,218.5 41.2,221.4 40.4,221.6 41.2,224.4 40.4,224.6 41.2,227.4 40.4,227.7 41.2,230.5 40.4,230.7 41.2,233.5 40.4,233.8 
		41.2,236.6 40.4,236.8 41.2,239.6 40.4,239.9 41.2,242.7 40.4,242.9 41.2,245.7 40.4,246 	"/>
</g>
</svg>
