<?xml version="1.0" encoding="utf-8"?>
<!-- Generator: Adobe Illustrator 15.1.0, SVG Export Plug-In . SVG Version: 6.00 Build 0)  -->
<!DOCTYPE svg PUBLIC "-//W3C//DTD SVG 1.1//EN" "http://www.w3.org/Graphics/SVG/1.1/DTD/svg11.dtd">
<svg version="1.1" xmlns="http://www.w3.org/2000/svg" xmlns:xlink="http://www.w3.org/1999/xlink" x="0px" y="0px" width="300px"
	 height="300px" viewBox="0 0 300 300" style="enable-background:new 0 0 300 300;" xml:space="preserve">
<style type="text/css">
<![CDATA[
	.st0{font-family:'MyriadPro-Regular';}
	.st1{display:inline;}
	.st2{font-size:12;}
	.st3{display:none;}
]]>
</style>
<g id="Layer_1">
	<g>
		<path d="M209.7,90.4l-4.6-26.2l-7.4,16.2C201.8,83.3,205.8,86.7,209.7,90.4z"/>
		<path d="M193.8,105.7c-1.7-1.8-3.6-3.4-5.5-4.9l-37.7,82.4l-35.1-79.6c-0.8,0.7-1.5,1.4-2.2,2.1c-11,11-16.4,24.5-16.4,40.6
			c0,7.9,1.3,15.2,3.8,21.8l5.7-31.8l28.7,65c5.7,2,11.7,3,18,3c4.2,0,8.3-0.4,12.1-1.2l30.4-66.7l6.5,40.5c5.4-8.9,8.1-19,8.1-30.3
			C210.2,130.4,204.7,116.7,193.8,105.7z"/>
		<path d="M97.3,90.5c2.9-2.9,5.9-5.5,9.1-7.8l-8.1-18.5L92,96.2C93.6,94.3,95.4,92.4,97.3,90.5z"/>
		<path d="M152.7,225.9c-2.3,0-4.6-0.1-6.9-0.3l4.5,10.1l4.5-9.8C154.1,225.9,153.4,225.9,152.7,225.9z"/>
		<path d="M77.2,171.5L66,228.7h23.9l4.9-27.8C86.5,192.4,80.6,182.6,77.2,171.5z"/>
		<path d="M225.7,181.4c-3.8,7.7-9.1,14.9-15.8,21.4c-1.1,1-2.1,2-3.2,3l3.7,22.9H234L225.7,181.4z"/>
	</g>
</g>
<g id="nyt_x5F_exporter_x5F_info" class="st3">
	<text transform="matrix(1 0 0 1 -40 120)" class="st1 st0 st2">&lt;nyt_prefs&gt;  &lt;nyt_prefix&gt;&lt;/nyt_prefix&gt;  &lt;nyt_suffix&gt;&lt;/nyt_suffix&gt;  &lt;nyt_base_path&gt;file:///Users/jaguil1/Desktop/Icons/coolSVGS&lt;/nyt_base_path&gt;  &lt;nyt_scaling&gt;100&lt;/nyt_scaling&gt;  &lt;nyt_transparency&gt;true&lt;/nyt_transparency&gt;  &lt;nyt_embedImage&gt;true&lt;/nyt_embedImage&gt;  &lt;nyt_embedFont&gt;true&lt;/nyt_embedFont&gt;  &lt;nyt_trimEdges&gt;true&lt;/nyt_trimEdges&gt;  &lt;nyt_innerPadding&gt;false&lt;/nyt_innerPadding&gt;  &lt;nyt_format&gt;SVG&lt;/nyt_format&gt;  &lt;nyt_artboards&gt;all&lt;/nyt_artboards&gt;  &lt;nyt_layers&gt;1&lt;/nyt_layers&gt;  &lt;nyt_exportArtboards&gt;false&lt;/nyt_exportArtboards&gt;  &lt;nyt_ignoreWarnings&gt;false&lt;/nyt_ignoreWarnings&gt;&lt;/nyt_prefs&gt;</text>
</g>
</svg>
