<?xml version="1.0" encoding="utf-8"?>
<!-- Generator: Adobe Illustrator 15.1.0, SVG Export Plug-In . SVG Version: 6.00 Build 0)  -->
<!DOCTYPE svg PUBLIC "-//W3C//DTD SVG 1.1//EN" "http://www.w3.org/Graphics/SVG/1.1/DTD/svg11.dtd">
<svg version="1.1" id="Layer_1" xmlns="http://www.w3.org/2000/svg" xmlns:xlink="http://www.w3.org/1999/xlink" x="0px" y="0px"
	 width="300px" height="300px" viewBox="0 0 300 300" style="enable-background:new 0 0 300 300;" xml:space="preserve">
<path d="M225.3,114.1L206,94.7l-6.3,6.3l-56-56L124.8,64l34.5,45.6l-0.2,0.2l-45.6-34.5L94.2,94.5l6.3,6.3l-56,56l18.9,18.9
	l45.6-34.5l0.2,0.2L74.7,187L94,206.3l6.3-6.3l54.9,54.9l18.9-18.9l-34.5-45.6l0.2-0.2l45.6,34.5l19.3-19.3l-5.2-5.2l56-56
	l-18.9-18.9l-45.6,34.5l-0.2-0.2L225.3,114.1z M139.9,65.3l0.2-0.2l47.7,47.7l-7.7,7.7L139.9,65.3z M113.2,92.1l55.3,40.2l-7.7,7.7
	L113,92.2L113.2,92.1z M149.8,150.5l0.2-0.2l0.2,0.2l-0.2,0.2L149.8,150.5z M64.8,160.6l-0.2-0.2l47.7-47.7l7.7,7.7L64.8,160.6z
	 M91.6,187.4l40.2-55.3l7.7,7.7l-47.7,47.7L91.6,187.4z M159,234.7l-0.2,0.2l-46.7-46.7l7.5-7.5L159,234.7z M185.8,207.9l-54.1-39.3
	l7.5-7.5l46.7,46.7L185.8,207.9z M235.2,140.4l0.2,0.2l-47.7,47.7l-7.7-7.7L235.2,140.4z M168.2,169l-7.7-7.7l47.7-47.7l0.2,0.2
	L168.2,169z"/>
</svg>
