<?xml version="1.0" encoding="utf-8"?>
<!-- Generator: Adobe Illustrator 15.1.0, SVG Export Plug-In . SVG Version: 6.00 Build 0)  -->
<!DOCTYPE svg PUBLIC "-//W3C//DTD SVG 1.1//EN" "http://www.w3.org/Graphics/SVG/1.1/DTD/svg11.dtd">
<svg version="1.1" id="Layer_1" xmlns="http://www.w3.org/2000/svg" xmlns:xlink="http://www.w3.org/1999/xlink" x="0px" y="0px"
	 width="300px" height="300px" viewBox="0 0 300 300" style="enable-background:new 0 0 300 300;" xml:space="preserve">
<g>
	<polygon points="170.1,116.2 182.8,116.2 161.1,137.9 154.8,131.5 149.8,136.4 156.2,142.8 145.9,153 128,153 130.6,155.6 
		129.7,156.5 142.5,156.5 87.6,211.4 95.8,219.7 107.6,207.9 107.6,201.9 113.6,201.9 129.9,185.6 117.2,185.6 138.9,163.9 
		145.2,170.2 150.2,165.3 143.8,158.9 154.1,148.7 172,148.7 169.4,146.1 170.3,145.2 157.5,145.2 212.4,90.3 204.2,82.1 
		192.4,93.9 192.4,99.9 186.4,99.9 	"/>
	<polygon points="192.4,145.2 192.4,148.7 202.5,148.7 202.5,185.6 192.4,185.6 192.4,201.9 202.5,201.9 202.5,256.1 211,256.1 
		211,197.6 215.3,201.9 225.2,201.9 211,187.8 211,156.5 214.2,156.5 214.2,153 211,153 211,116.2 214.2,116.2 214.2,107.1 
		202.5,107.1 202.5,145.2 	"/>
	<polygon points="100.1,86.7 107.6,94.2 107.6,84.3 105.1,81.8 	"/>
	<polygon points="89,104.1 84.7,99.9 74.8,99.9 89,114 89,145.2 85.8,145.2 85.8,148.7 89,148.7 89,185.6 85.8,185.6 85.8,194.7 
		97.5,194.7 97.5,156.5 107.6,156.5 107.6,153 97.5,153 97.5,116.2 107.6,116.2 107.6,99.9 97.5,99.9 97.5,43.9 89,43.9 	"/>
	<polygon points="199.9,215 192.4,207.5 192.4,217.4 194.9,219.9 	"/>
</g>
</svg>
