<?xml version="1.0" encoding="utf-8"?>
<!-- Generator: Adobe Illustrator 15.1.0, SVG Export Plug-In . SVG Version: 6.00 Build 0)  -->
<!DOCTYPE svg PUBLIC "-//W3C//DTD SVG 1.1//EN" "http://www.w3.org/Graphics/SVG/1.1/DTD/svg11.dtd">
<svg version="1.1" xmlns="http://www.w3.org/2000/svg" xmlns:xlink="http://www.w3.org/1999/xlink" x="0px" y="0px" width="300px"
	 height="300px" viewBox="0 0 300 300" style="enable-background:new 0 0 300 300;" xml:space="preserve">
<style type="text/css">
<![CDATA[
	.st0{font-family:'MyriadPro-Regular';}
	.st1{display:inline;}
	.st2{font-size:12;}
	.st3{display:none;}
]]>
</style>
<g id="Layer_1">
	<path d="M244.2,142c0-19.7-3.8-37.3-11.5-52.9c-6.6-13.5-15.9-24.4-27.8-32.7c2.3,5.7,4.2,12.1,5.6,19.1c-0.3-0.5-0.5-0.9-0.8-1.4
		c-0.1,0.9-0.4,1.7-0.6,2.5c-3-2.4-6.1-4.6-9.4-6.7c-14.6-9-31.2-13.4-49.7-13.4c-17.1,0-33.1,4.1-47.8,12.2
		c-7.1,3.9-13.4,8.7-18.9,14.3c1.3-7.8,3-14.9,5.1-21.3c-2.1,1.9-4.2,3.8-6.2,5.9C64.6,86,55.8,111.6,55.8,144.3
		c0,2.2,0.1,4.4,0.2,6.5c-0.1,2.4-0.2,4.8-0.2,7.2c0,19.7,3.8,37.3,11.5,52.9c6.6,13.5,15.9,24.4,27.8,32.7
		c-2.3-5.7-4.2-12.1-5.6-19.1c0.3,0.5,0.5,0.9,0.8,1.4c0.1-0.9,0.4-1.7,0.6-2.5c3,2.4,6.1,4.6,9.4,6.7c14.6,9,31.2,13.4,49.7,13.4
		c17.1,0,33.1-4.1,47.8-12.2c7.1-3.9,13.4-8.7,18.9-14.3c-1.3,7.8-3,14.9-5.1,21.3c2.1-1.9,4.2-3.8,6.2-5.9
		c17.6-18.5,26.3-44.1,26.3-76.8c0-2.2-0.1-4.4-0.2-6.5C244.1,146.8,244.2,144.4,244.2,142z M194.6,204.2c-11,14-26.7,21-47.1,21
		c-22.7,0-39.5-8.6-50.5-25.7c-6.7-10.4-11.3-24.2-14-41.2c0.2,0.6,0.5,1.2,0.7,1.8c-0.4-2.9-0.7-5.9-0.8-9
		c1.1-22,7.3-39.3,18.8-51.8c1.2-1.3,2.4-2.5,3.7-3.6c11-14,26.7-21,47.1-21c22.7,0,39.5,8.6,50.5,25.7c6.7,10.4,11.4,24.2,14,41.2
		c-0.2-0.6-0.5-1.2-0.7-1.8c0.4,2.9,0.7,5.9,0.8,9c-1.1,22-7.3,39.3-18.8,51.8C197.1,201.9,195.9,203.1,194.6,204.2z"/>
</g>
<g id="nyt_x5F_exporter_x5F_info" class="st3">
	<text transform="matrix(1 0 0 1 -1320 120)" class="st1 st0 st2">&lt;nyt_prefs&gt;  &lt;nyt_prefix&gt;&lt;/nyt_prefix&gt;  &lt;nyt_suffix&gt;&lt;/nyt_suffix&gt;  &lt;nyt_base_path&gt;file:///Users/jaguil1/Desktop/Icons/coolSVGS&lt;/nyt_base_path&gt;  &lt;nyt_scaling&gt;100&lt;/nyt_scaling&gt;  &lt;nyt_transparency&gt;true&lt;/nyt_transparency&gt;  &lt;nyt_embedImage&gt;true&lt;/nyt_embedImage&gt;  &lt;nyt_embedFont&gt;true&lt;/nyt_embedFont&gt;  &lt;nyt_trimEdges&gt;true&lt;/nyt_trimEdges&gt;  &lt;nyt_innerPadding&gt;false&lt;/nyt_innerPadding&gt;  &lt;nyt_format&gt;SVG&lt;/nyt_format&gt;  &lt;nyt_artboards&gt;all&lt;/nyt_artboards&gt;  &lt;nyt_layers&gt;1&lt;/nyt_layers&gt;  &lt;nyt_exportArtboards&gt;false&lt;/nyt_exportArtboards&gt;  &lt;nyt_ignoreWarnings&gt;false&lt;/nyt_ignoreWarnings&gt;&lt;/nyt_prefs&gt;</text>
</g>
</svg>
