<?xml version="1.0" encoding="utf-8"?>
<!-- Generator: Adobe Illustrator 15.1.0, SVG Export Plug-In . SVG Version: 6.00 Build 0)  -->
<!DOCTYPE svg PUBLIC "-//W3C//DTD SVG 1.1//EN" "http://www.w3.org/Graphics/SVG/1.1/DTD/svg11.dtd">
<svg version="1.1" xmlns="http://www.w3.org/2000/svg" xmlns:xlink="http://www.w3.org/1999/xlink" x="0px" y="0px" width="300px"
	 height="300px" viewBox="0 0 300 300" style="enable-background:new 0 0 300 300;" xml:space="preserve">
<style type="text/css">
<![CDATA[
	.st0{font-family:'MyriadPro-Regular';}
	.st1{display:inline;}
	.st2{font-size:12;}
	.st3{display:none;}
]]>
</style>
<g id="Layer_1">
	<g>
		<path d="M130.5,161.3c2.1-4.5,3.8-9.5,5.3-15c-5.6-16.5-17.4-29.2-34.8-29.2c-1.8,0-3.7,0.1-5.5,0.4c4.2,10.8,13.1,20.6,27.8,27.5
			l0.3,0.9c-17.6,7.5-30.2,19.1-35.4,34.6c3.8,1.6,7.9,2.4,12.2,2.4c5.5,0.1,10.3-1.1,14.5-3.3C117.8,172.3,123.1,166.1,130.5,161.3
			z"/>
		<path d="M213.9,183c-3.8-17.8-17.4-31.2-37.5-39.2v-0.9c16.5-7.6,25.5-18.6,29.4-30.1c-3-0.8-6.2-1.3-9.5-1.3
			c-6.3,0-11.7,1.2-16.4,3.5c-3.4,6.9-9.3,12.4-16.6,16.4c-3.6,6.2-6.5,13.7-8.9,22.2c0.3,1.1,0.7,2.2,1.1,3.3
			c17.7,6.4,29.4,15.6,32.5,30.7c2,0.3,4.1,0.5,6.2,0.5C201.3,188.5,208.1,186.7,213.9,183z"/>
		<path d="M98.4,92.1c6.4,0,12.9,1.3,19.3,4.2c1.7-14.8,13.2-26.8,33.1-26.8c16.2,0,25.5,7.7,29.7,17.5c4.1-1.1,8.5-1.8,13.2-1.8
			c4.6,0,9,0.6,13.2,1.6c-5-19.6-23.3-35.9-54.6-35.9c-30.2,0-53.8,16.4-58.6,41.4C95.1,92.2,96.7,92.1,98.4,92.1z"/>
		<path d="M197.7,214.7c-4.7,0-9.2-0.6-13.4-1.6c-6.1,10.5-18.1,17.1-33.9,17.1c-19.1,0-32.3-10.4-36.7-24.1
			c-3.8,1-7.6,1.6-11.5,1.6c-5.7,0-11.1-0.9-16.1-2.6c4,24.6,27.2,44,63.7,44c29,0,52.9-13.9,61.6-36.4
			C207,214,202.4,214.7,197.7,214.7z"/>
	</g>
</g>
<g id="nyt_x5F_exporter_x5F_info" class="st3">
	<text transform="matrix(1 0 0 1 -1000 120)" class="st1 st0 st2">&lt;nyt_prefs&gt;  &lt;nyt_prefix&gt;&lt;/nyt_prefix&gt;  &lt;nyt_suffix&gt;&lt;/nyt_suffix&gt;  &lt;nyt_base_path&gt;file:///Users/jaguil1/Desktop/Icons/coolSVGS&lt;/nyt_base_path&gt;  &lt;nyt_scaling&gt;100&lt;/nyt_scaling&gt;  &lt;nyt_transparency&gt;true&lt;/nyt_transparency&gt;  &lt;nyt_embedImage&gt;true&lt;/nyt_embedImage&gt;  &lt;nyt_embedFont&gt;true&lt;/nyt_embedFont&gt;  &lt;nyt_trimEdges&gt;true&lt;/nyt_trimEdges&gt;  &lt;nyt_innerPadding&gt;false&lt;/nyt_innerPadding&gt;  &lt;nyt_format&gt;SVG&lt;/nyt_format&gt;  &lt;nyt_artboards&gt;all&lt;/nyt_artboards&gt;  &lt;nyt_layers&gt;1&lt;/nyt_layers&gt;  &lt;nyt_exportArtboards&gt;false&lt;/nyt_exportArtboards&gt;  &lt;nyt_ignoreWarnings&gt;false&lt;/nyt_ignoreWarnings&gt;&lt;/nyt_prefs&gt;</text>
</g>
</svg>
