<?xml version="1.0" encoding="utf-8"?>
<!-- Generator: Adobe Illustrator 15.1.0, SVG Export Plug-In . SVG Version: 6.00 Build 0)  -->
<!DOCTYPE svg PUBLIC "-//W3C//DTD SVG 1.1//EN" "http://www.w3.org/Graphics/SVG/1.1/DTD/svg11.dtd">
<svg version="1.1" id="Layer_1" xmlns="http://www.w3.org/2000/svg" xmlns:xlink="http://www.w3.org/1999/xlink" x="0px" y="0px"
	 width="300px" height="300px" viewBox="0 0 300 300" style="enable-background:new 0 0 300 300;" xml:space="preserve">
<g>
	<g>
		<path d="M34.4,246.5l31.9-56.4c2-4.4,4.1-8.3,6.3-11.7c2.2-3.4,7.4-12.6,15.8-27.3l-24.1-44.7L50.7,80.4
			c-3.2-6.2-6.9-12.8-11.3-19.9c-1.8-3-3.5-6.1-5-9.3L48.2,50c2.2,2.5,4.8,5.8,7.9,9.9c3.1,4.1,7.3,9.2,12.7,15.2
			c5.3,6,10.5,12.5,15.6,19.4l43.9,56.8c-2.3,3-7.3,8.6-14.8,16.6c-2.5,2.5-4.2,4.4-5,5.5l-55.2,68.3c-2.5,3.5-4.6,6.3-6.3,8.3H34.6
			L34.4,246.5z"/>
	</g>
	<g>
		<path d="M103.1,246.5l31.9-56.4c2-4.4,4.1-8.3,6.3-11.7c2.2-3.4,7.4-12.6,15.8-27.3l-24.1-44.7l-13.6-25.9
			c-3.2-6.2-6.9-12.8-11.3-19.9c-1.8-3-3.5-6.1-5-9.3l13.8-1.3c2.2,2.5,4.8,5.8,7.9,9.9c3.1,4.1,7.3,9.2,12.7,15.2
			c5.4,6,10.5,12.5,15.6,19.4l43.9,56.8c-2.3,3-7.3,8.6-14.8,16.6c-2.5,2.5-4.2,4.4-5,5.5l-55.2,68.3c-2.5,3.5-4.6,6.3-6.3,8.3
			h-12.3L103.1,246.5z"/>
	</g>
	<g>
		<path d="M171.8,246.5l31.9-56.4c2-4.4,4.1-8.3,6.3-11.7c2.2-3.4,7.4-12.6,15.8-27.3l-24.1-44.7l-13.6-25.9
			c-3.2-6.2-6.9-12.8-11.3-19.9c-1.8-3-3.5-6.1-5-9.3l13.8-1.3c2.2,2.5,4.8,5.8,7.9,9.9c3.1,4.1,7.3,9.2,12.7,15.2
			c5.4,6,10.5,12.5,15.6,19.4l43.9,56.8c-2.3,3-7.3,8.6-14.8,16.6c-2.5,2.5-4.2,4.4-5,5.5l-55.2,68.3c-2.5,3.5-4.6,6.3-6.3,8.3H172
			L171.8,246.5z"/>
	</g>
</g>
</svg>
