<?xml version="1.0" encoding="utf-8"?>
<!-- Generator: Adobe Illustrator 15.1.0, SVG Export Plug-In . SVG Version: 6.00 Build 0)  -->
<!DOCTYPE svg PUBLIC "-//W3C//DTD SVG 1.1//EN" "http://www.w3.org/Graphics/SVG/1.1/DTD/svg11.dtd">
<svg version="1.1" id="Layer_1" xmlns="http://www.w3.org/2000/svg" xmlns:xlink="http://www.w3.org/1999/xlink" x="0px" y="0px"
	 width="300px" height="300px" viewBox="0 0 300 300" style="enable-background:new 0 0 300 300;" xml:space="preserve">
<g>
	<g>
		<path d="M265.6,53.5l-31.9,56.4c-2,4.4-4.1,8.3-6.3,11.7c-2.2,3.4-7.4,12.6-15.8,27.3l24.1,44.7l13.6,25.9
			c3.2,6.2,6.9,12.8,11.3,19.9c1.8,3,3.5,6.1,5,9.3l-13.8,1.3c-2.2-2.5-4.8-5.8-7.9-9.9c-3.1-4.1-7.3-9.2-12.7-15.2
			c-5.3-6-10.5-12.5-15.6-19.4l-43.9-56.8c2.3-3,7.3-8.6,14.8-16.6c2.5-2.5,4.2-4.4,5-5.5l55.2-68.3c2.5-3.5,4.6-6.3,6.3-8.3h12.3
			L265.6,53.5z"/>
	</g>
	<g>
		<path d="M196.9,53.5l-31.9,56.4c-2,4.4-4.1,8.3-6.3,11.7c-2.2,3.4-7.4,12.6-15.8,27.3l24.1,44.7l13.6,25.9
			c3.2,6.2,6.9,12.8,11.3,19.9c1.8,3,3.5,6.1,5,9.3l-13.8,1.3c-2.2-2.5-4.8-5.8-7.9-9.9c-3.1-4.1-7.3-9.2-12.7-15.2
			c-5.4-6-10.5-12.5-15.6-19.4l-43.9-56.8c2.3-3,7.3-8.6,14.8-16.6c2.5-2.5,4.2-4.4,5-5.5l55.2-68.3c2.5-3.5,4.6-6.3,6.3-8.3h12.3
			L196.9,53.5z"/>
	</g>
	<g>
		<path d="M128.2,53.5l-31.9,56.4c-2,4.4-4.1,8.3-6.3,11.7c-2.2,3.4-7.4,12.6-15.8,27.3l24.1,44.7l13.6,25.9
			c3.2,6.2,6.9,12.8,11.3,19.9c1.8,3,3.5,6.1,5,9.3l-13.8,1.3c-2.2-2.5-4.8-5.8-7.9-9.9c-3.1-4.1-7.3-9.2-12.7-15.2
			c-5.4-6-10.5-12.5-15.6-19.4l-43.9-56.8c2.3-3,7.3-8.6,14.8-16.6c2.5-2.5,4.2-4.4,5-5.5l55.2-68.3c2.5-3.5,4.6-6.3,6.3-8.3H128
			L128.2,53.5z"/>
	</g>
</g>
</svg>
