<?xml version="1.0" encoding="utf-8"?>
<!-- Generator: Adobe Illustrator 15.1.0, SVG Export Plug-In . SVG Version: 6.00 Build 0)  -->
<!DOCTYPE svg PUBLIC "-//W3C//DTD SVG 1.1//EN" "http://www.w3.org/Graphics/SVG/1.1/DTD/svg11.dtd">
<svg version="1.1" id="Layer_1" xmlns="http://www.w3.org/2000/svg" xmlns:xlink="http://www.w3.org/1999/xlink" x="0px" y="0px"
	 width="300px" height="300px" viewBox="0 0 300 300" style="enable-background:new 0 0 300 300;" xml:space="preserve">
<g>
	<g>
		<path d="M246.5,265.6l-56.4-31.9c-4.4-2-8.3-4.1-11.7-6.3c-3.4-2.2-12.6-7.4-27.3-15.8l-44.7,24.1l-25.9,13.6
			c-6.2,3.2-12.8,6.9-19.9,11.3c-3,1.8-6.1,3.5-9.3,5L50,251.8c2.5-2.2,5.8-4.8,9.9-7.9c4.1-3.1,9.2-7.3,15.2-12.7
			c6-5.3,12.5-10.5,19.4-15.6l56.8-43.9c3,2.3,8.6,7.3,16.6,14.8c2.5,2.5,4.4,4.2,5.5,5l68.3,55.2c3.5,2.5,6.3,4.6,8.3,6.3v12.3
			L246.5,265.6z"/>
	</g>
	<g>
		<path d="M246.5,196.9l-56.4-31.9c-4.4-2-8.3-4.1-11.7-6.3c-3.4-2.2-12.6-7.4-27.3-15.8l-44.7,24.1l-25.9,13.6
			c-6.2,3.2-12.8,6.9-19.9,11.3c-3,1.8-6.1,3.5-9.3,5L50,183.1c2.5-2.2,5.8-4.8,9.9-7.9c4.1-3.1,9.2-7.3,15.2-12.7
			c6-5.4,12.5-10.5,19.4-15.6l56.8-43.9c3,2.3,8.6,7.3,16.6,14.8c2.5,2.5,4.4,4.2,5.5,5l68.3,55.2c3.5,2.5,6.3,4.6,8.3,6.3v12.3
			L246.5,196.9z"/>
	</g>
	<g>
		<path d="M246.5,128.2l-56.4-31.9c-4.4-2-8.3-4.1-11.7-6.3c-3.4-2.2-12.6-7.4-27.3-15.8l-44.7,24.1l-25.9,13.6
			c-6.2,3.2-12.8,6.9-19.9,11.3c-3,1.8-6.1,3.5-9.3,5L50,114.4c2.5-2.2,5.8-4.8,9.9-7.9c4.1-3.1,9.2-7.3,15.2-12.7
			c6-5.4,12.5-10.5,19.4-15.6l56.8-43.9c3,2.3,8.6,7.3,16.6,14.8c2.5,2.5,4.4,4.2,5.5,5l68.3,55.2c3.5,2.5,6.3,4.6,8.3,6.3V128
			L246.5,128.2z"/>
	</g>
</g>
</svg>
