<?xml version="1.0" encoding="utf-8"?>
<!-- Generator: Adobe Illustrator 15.1.0, SVG Export Plug-In . SVG Version: 6.00 Build 0)  -->
<!DOCTYPE svg PUBLIC "-//W3C//DTD SVG 1.1//EN" "http://www.w3.org/Graphics/SVG/1.1/DTD/svg11.dtd">
<svg version="1.1" id="Layer_1" xmlns="http://www.w3.org/2000/svg" xmlns:xlink="http://www.w3.org/1999/xlink" x="0px" y="0px"
	 width="300px" height="300px" viewBox="0 0 300 300" style="enable-background:new 0 0 300 300;" xml:space="preserve">
<polygon points="179.1,141.8 160.9,141.8 239.8,62.9 228,51 211,68 211,76.6 202.4,76.6 178.9,100.1 197.2,100.1 166,131.3 
	156.9,122.1 149.8,129.3 158.9,138.4 144.2,153.1 118.4,153.1 122.1,156.9 120.9,158.1 139.1,158.1 60.2,237.1 72,249 89,232 
	89,223.4 97.6,223.4 121.1,199.9 102.8,199.9 134,168.7 143.1,177.9 150.2,170.7 141.1,161.6 155.8,146.9 181.6,146.9 177.9,143.1 
	"/>
</svg>
