<?xml version="1.0" encoding="utf-8"?>
<!-- Generator: Adobe Illustrator 15.1.0, SVG Export Plug-In . SVG Version: 6.00 Build 0)  -->
<!DOCTYPE svg PUBLIC "-//W3C//DTD SVG 1.1//EN" "http://www.w3.org/Graphics/SVG/1.1/DTD/svg11.dtd">
<svg version="1.1" id="Layer_1" xmlns="http://www.w3.org/2000/svg" xmlns:xlink="http://www.w3.org/1999/xlink" x="0px" y="0px"
	 width="300px" height="300px" viewBox="0 0 300 300" style="enable-background:new 0 0 300 300;" xml:space="preserve">
<g>
	<polygon points="101,93.1 103.5,93.1 103.5,98.3 105.5,98.3 105.5,137.4 105.7,137.4 105.7,107.7 107.8,107.7 107.8,82.8 
		117.2,82.8 117.2,77.6 101,77.6 	"/>
	<polygon points="183.4,145.5 180.9,145.5 180.9,140.2 178.9,140.2 178.9,101.1 178.7,101.1 178.7,130.9 176.6,130.9 176.6,155.8 
		167.2,155.8 167.2,160.9 183.4,160.9 	"/>
	<path d="M160.4,131.1c-2.1,0.6-4.3,1.1-6.8,1.5v15.6h6.8V131.1z"/>
	<path d="M199.6,76.8h-8.1v25.6h35.4v7.6h-35.4v7.2h-3.7v8.2h2.4v5.3h2.1v39.1h18.3c4-2,7.6-4.2,10.9-6.8h-24v-4.7h-2.9v-43.1h46
		v7.6h-35.5v33.4h23.7c11.3-12.5,17-29,17-49.7c0-22.2-6.3-39.3-18.9-51.3c-7.1-6.8-16.2-11.6-27.3-14.6V76.8z"/>
	<polygon points="124,118.1 118.3,118.1 118.3,123.8 124.3,123.8 124.3,90.4 124,90.4 	"/>
	<path d="M113.3,137.4H141v5.7h5.7v-9.9c-1.7,0.1-3.5,0.1-5.3,0.1h-17.1v-2.7h-11V137.4z"/>
	<polygon points="100.5,160.4 116,160.4 116,158 121.3,158 121.3,155.9 160.4,155.9 160.4,155.8 130.6,155.8 130.6,153.6 
		105.7,153.6 105.7,144.3 100.5,144.3 	"/>
	<rect x="54.2" y="82.4" width="25.1" height="33.4"/>
	<polygon points="105.3,182.2 105.3,217.7 98.5,217.7 98.5,174.5 103.2,174.5 103.2,171.7 146.3,171.7 146.3,179.1 151.5,179.1 
		151.5,168.6 144.3,168.6 144.3,164.9 136,164.9 136,167.3 130.8,167.3 130.8,169.4 91.6,169.4 91.6,204.9 84.8,204.9 84.8,161.8 
		92.9,161.8 92.9,136.2 57.5,136.2 57.5,128.6 92.9,128.6 92.9,121.3 96.6,121.3 96.6,113.1 94.2,113.1 94.2,107.8 92.1,107.8 
		92.1,68.7 56.6,68.7 56.6,61.9 99.7,61.9 99.7,70 125.3,70 125.3,37.1 54.2,37.1 54.2,75.5 86.9,75.5 86.9,80.3 89.8,80.3 
		89.8,123.4 54.2,123.4 54.2,262.9 124.3,262.9 124.3,182.2 	"/>
	<path d="M184.7,176.7v-8.1h-25.6v10.5h3.4c9.9,0,18.9-0.8,27-2.4H184.7z"/>
	<path d="M192.8,39.1c-2.2-0.4-4.5-0.7-6.8-1v26h-4.7v2.9h-43.1V37.1h-5.2V70h7.2v3.7h8.2v-2.4h5.3v-2.1h39.1V39.1z"/>
	<path d="M183.9,78.1h-15.5v2.4h-5.3v2.1H124v0.2h29.8v0.8c2.5,0.3,4.8,0.8,6.9,1.3h18v9.3h5.2V78.1z"/>
	<path d="M145.7,56.4h33.4v-19c-2.9-0.2-5.9-0.3-8.9-0.3h-24.5V56.4z"/>
</g>
</svg>
