<?xml version="1.0" encoding="utf-8"?>
<!-- Generator: Adobe Illustrator 15.1.0, SVG Export Plug-In . SVG Version: 6.00 Build 0)  -->
<!DOCTYPE svg PUBLIC "-//W3C//DTD SVG 1.1//EN" "http://www.w3.org/Graphics/SVG/1.1/DTD/svg11.dtd">
<svg version="1.1" xmlns="http://www.w3.org/2000/svg" xmlns:xlink="http://www.w3.org/1999/xlink" x="0px" y="0px" width="300px"
	 height="300px" viewBox="0 0 300 300" style="enable-background:new 0 0 300 300;" xml:space="preserve">
<style type="text/css">
<![CDATA[
	.st0{font-family:'MyriadPro-Regular';}
	.st1{display:inline;}
	.st2{font-size:12;}
	.st3{display:none;}
]]>
</style>
<g id="Layer_1">
	<path d="M226.1,80.2c-21-21-46.5-31.6-76.6-31.6c-29.5,0-54.7,10.3-75.8,31c-21,20.7-31.4,45.5-31.4,74.6
		c0,29.7,10.8,54.2,32.5,73.5c9.7,8.5,20.1,14.6,31.2,18.1c12,3.7,25.8,5.5,41.4,5.5h8.2l0.1-71.5c0-24.9,8.2-37.3,24.7-37.3
		c5.5,0,11.1,2.1,16.8,6.2L211,121c-8.7-5.2-17-7.8-25-7.8c-6,0-11.2,1.1-15.6,3.4c-4.3,2.1-9.2,6.1-14.8,12v-11.7h-30.2v48.8h-0.7
		v51.7c-14.6-1.4-27.1-8.3-37.5-20.6c-10.4-12.3-15.5-26.1-15.5-41.5c0-18.1,6.9-34.9,20.8-50.4c15-16.6,34-24.9,57.1-24.9
		c22.4,0,41,7.4,55.9,22.3c15.1,14.9,22.7,33.3,22.7,55.2c0,24.4-11.3,45.2-34,62.2l21.4,22.3c14.8-13,25.6-26.2,32.1-39.6
		c6.6-14.1,9.9-29.2,9.9-45.4C257.7,126.9,247.1,101.3,226.1,80.2z"/>
</g>
<g id="nyt_x5F_exporter_x5F_info" class="st3">
	<text transform="matrix(1 0 0 1 -360 120)" class="st1 st0 st2">&lt;nyt_prefs&gt;  &lt;nyt_prefix&gt;&lt;/nyt_prefix&gt;  &lt;nyt_suffix&gt;&lt;/nyt_suffix&gt;  &lt;nyt_base_path&gt;file:///Users/jaguil1/Desktop/Icons/coolSVGS&lt;/nyt_base_path&gt;  &lt;nyt_scaling&gt;100&lt;/nyt_scaling&gt;  &lt;nyt_transparency&gt;true&lt;/nyt_transparency&gt;  &lt;nyt_embedImage&gt;true&lt;/nyt_embedImage&gt;  &lt;nyt_embedFont&gt;true&lt;/nyt_embedFont&gt;  &lt;nyt_trimEdges&gt;true&lt;/nyt_trimEdges&gt;  &lt;nyt_innerPadding&gt;false&lt;/nyt_innerPadding&gt;  &lt;nyt_format&gt;SVG&lt;/nyt_format&gt;  &lt;nyt_artboards&gt;all&lt;/nyt_artboards&gt;  &lt;nyt_layers&gt;1&lt;/nyt_layers&gt;  &lt;nyt_exportArtboards&gt;false&lt;/nyt_exportArtboards&gt;  &lt;nyt_ignoreWarnings&gt;false&lt;/nyt_ignoreWarnings&gt;&lt;/nyt_prefs&gt;</text>
</g>
</svg>
