<?xml version="1.0" encoding="utf-8"?>
<!-- Generator: Adobe Illustrator 15.1.0, SVG Export Plug-In . SVG Version: 6.00 Build 0)  -->
<!DOCTYPE svg PUBLIC "-//W3C//DTD SVG 1.1//EN" "http://www.w3.org/Graphics/SVG/1.1/DTD/svg11.dtd">
<svg version="1.1" id="Layer_1" xmlns="http://www.w3.org/2000/svg" xmlns:xlink="http://www.w3.org/1999/xlink" x="0px" y="0px"
	 width="300px" height="300px" viewBox="0 0 300 300" style="enable-background:new 0 0 300 300;" xml:space="preserve">
<g>
	<path d="M110.4,53.9l3.2-3.2c0.9,0.7,1.5,1.3,1.9,1.7c6.3,6.3,9.6,13.1,9.9,20.4c0.3,7.3-2.2,13.5-7.3,18.6
		c-2.6,2.6-5.9,4.8-9.8,6.5c-2.6,1.3-7.3,2.5-14.1,3.8c-6.8,1.3-11.3,2.5-13.5,3.5c-3.2,1.3-5.8,2.9-7.6,4.8
		c-2.5,2.5-3.7,5.5-3.6,8.9c0.1,3.4,2.3,8.1,6.7,14.1l-3.1,3.1c-0.6-0.3-1.1-0.6-1.4-1c-4.9-4.9-8.2-11.2-9.7-18.8
		c-1.5-7.6,0.8-14.5,7-20.7c2.6-2.6,5.5-4.6,8.7-6c3.2-1.4,8.4-2.9,15.6-4.4c10.8-2.3,17.8-5,21-8.2c2.3-2.3,3.4-5.2,3.3-8.8
		C117.2,64.6,114.9,59.9,110.4,53.9z"/>
	<path d="M124.5,68.1l3.2-3.2c0.9,0.7,1.5,1.3,1.9,1.7c6.3,6.3,9.6,13.1,9.9,20.4c0.3,7.3-2.2,13.5-7.3,18.6
		c-2.6,2.6-5.9,4.7-9.8,6.5c-2.6,1.2-7.3,2.5-14.1,3.8c-6.8,1.3-11.3,2.5-13.5,3.5c-3.2,1.4-5.8,2.9-7.6,4.8
		c-2.5,2.5-3.7,5.5-3.6,8.9c0.1,3.4,2.3,8.1,6.7,14.1l-3.1,3.1c-0.6-0.3-1.1-0.6-1.4-1c-4.9-4.9-8.2-11.2-9.7-18.8
		c-1.5-7.6,0.8-14.5,7-20.7c2.6-2.6,5.5-4.6,8.7-6c3.2-1.4,8.4-2.9,15.6-4.4c10.8-2.2,17.8-5,21-8.2c2.3-2.3,3.4-5.2,3.3-8.8
		C131.3,78.8,129,74,124.5,68.1z"/>
	<path d="M138.7,82.2l3.2-3.2c0.9,0.7,1.5,1.3,1.9,1.7c6.3,6.3,9.6,13.1,9.9,20.4c0.3,7.3-2.2,13.5-7.3,18.6
		c-2.6,2.6-5.9,4.7-9.8,6.5c-2.6,1.2-7.3,2.5-14.1,3.8c-6.8,1.3-11.3,2.5-13.5,3.5c-3.2,1.4-5.8,2.9-7.6,4.8
		c-2.5,2.5-3.7,5.5-3.6,8.9c0.1,3.4,2.3,8.1,6.7,14.1l-3.1,3.1c-0.6-0.3-1.1-0.6-1.4-1c-4.9-4.9-8.2-11.2-9.7-18.8
		c-1.5-7.6,0.8-14.5,7-20.7c2.6-2.6,5.5-4.6,8.7-6c3.2-1.4,8.4-2.9,15.6-4.4c10.8-2.2,17.8-5,21-8.2c2.3-2.3,3.4-5.2,3.3-8.8
		C145.5,93,143.2,88.2,138.7,82.2z"/>
	<path d="M152.9,96.4l3.2-3.2c0.9,0.7,1.5,1.3,1.9,1.7c6.3,6.3,9.6,13.1,9.9,20.4c0.3,7.3-2.2,13.5-7.3,18.6
		c-2.6,2.6-5.9,4.7-9.8,6.5c-2.6,1.2-7.3,2.5-14.1,3.8c-6.8,1.3-11.3,2.5-13.5,3.5c-3.2,1.4-5.8,2.9-7.6,4.8
		c-2.5,2.5-3.7,5.5-3.6,8.9c0.1,3.4,2.3,8.1,6.7,14.1l-3.1,3.1c-0.6-0.3-1.1-0.6-1.4-1c-4.9-4.9-8.2-11.2-9.7-18.8
		c-1.5-7.6,0.8-14.5,7-20.7c2.6-2.6,5.5-4.6,8.7-6c3.2-1.4,8.4-2.9,15.6-4.4c10.8-2.3,17.8-5,21-8.2c2.3-2.3,3.4-5.2,3.3-8.8
		C159.7,107.1,157.4,102.4,152.9,96.4z"/>
	<path d="M167,110.6l3.2-3.2c0.9,0.7,1.5,1.3,1.9,1.7c6.3,6.3,9.6,13.1,9.9,20.4c0.3,7.3-2.2,13.5-7.3,18.6
		c-2.6,2.6-5.9,4.7-9.8,6.5c-2.6,1.2-7.3,2.5-14.1,3.8c-6.8,1.3-11.3,2.5-13.5,3.5c-3.2,1.4-5.8,2.9-7.6,4.8
		c-2.5,2.5-3.7,5.5-3.6,8.9c0.1,3.4,2.3,8.1,6.7,14.1l-3.1,3.1c-0.6-0.3-1.1-0.6-1.4-1c-4.9-4.9-8.2-11.2-9.7-18.8
		c-1.5-7.6,0.8-14.5,7-20.7c2.6-2.6,5.5-4.6,8.7-6c3.2-1.4,8.4-2.9,15.6-4.4c10.8-2.3,17.8-5,21-8.2c2.3-2.3,3.4-5.2,3.3-8.8
		C173.8,121.3,171.5,116.5,167,110.6z"/>
	<path d="M181.2,124.7l3.2-3.2c0.9,0.7,1.5,1.3,1.9,1.7c6.3,6.3,9.6,13.1,9.9,20.4c0.3,7.3-2.2,13.5-7.3,18.6
		c-2.6,2.6-5.9,4.7-9.8,6.5c-2.6,1.2-7.3,2.5-14.1,3.8c-6.8,1.3-11.3,2.5-13.5,3.5c-3.2,1.4-5.8,2.9-7.6,4.8
		c-2.5,2.5-3.7,5.5-3.6,8.9c0.1,3.4,2.3,8.1,6.7,14.1l-3.1,3.1c-0.6-0.3-1.1-0.6-1.4-1c-4.9-4.9-8.2-11.2-9.7-18.8
		c-1.5-7.6,0.8-14.5,7-20.7c2.6-2.6,5.5-4.6,8.7-6c3.2-1.4,8.4-2.9,15.6-4.4c10.8-2.2,17.8-5,21-8.2c2.3-2.3,3.4-5.2,3.3-8.8
		C188,135.5,185.7,130.7,181.2,124.7z"/>
	<path d="M195.4,138.9l3.2-3.2c0.9,0.7,1.5,1.3,1.9,1.7c6.3,6.3,9.6,13.1,9.9,20.4c0.3,7.3-2.2,13.5-7.3,18.6
		c-2.6,2.6-5.9,4.7-9.8,6.5c-2.6,1.2-7.3,2.5-14.1,3.8c-6.8,1.3-11.3,2.5-13.5,3.5c-3.2,1.4-5.8,2.9-7.6,4.8
		c-2.5,2.5-3.7,5.5-3.6,8.9c0.1,3.4,2.3,8.1,6.7,14.1l-3.1,3.1c-0.6-0.3-1.1-0.6-1.4-1c-4.9-4.9-8.2-11.2-9.7-18.8
		c-1.5-7.6,0.8-14.5,7-20.7c2.6-2.6,5.5-4.6,8.7-6c3.2-1.4,8.4-2.9,15.6-4.4c10.8-2.3,17.8-5,21-8.2c2.3-2.3,3.4-5.2,3.3-8.8
		C202.2,149.6,199.9,144.9,195.4,138.9z"/>
	<path d="M209.5,153.1l3.2-3.2c0.9,0.7,1.5,1.3,1.9,1.7c6.3,6.3,9.6,13.1,9.9,20.4c0.3,7.3-2.2,13.5-7.3,18.6
		c-2.6,2.6-5.9,4.7-9.8,6.5c-2.6,1.2-7.3,2.5-14.1,3.8c-6.8,1.3-11.3,2.5-13.5,3.5c-3.2,1.4-5.8,2.9-7.6,4.8
		c-2.5,2.5-3.7,5.5-3.6,8.9c0.1,3.4,2.3,8.1,6.7,14.1l-3.1,3.1c-0.6-0.3-1.1-0.6-1.4-1c-4.9-4.9-8.2-11.2-9.7-18.8
		c-1.5-7.6,0.8-14.5,7-20.7c2.6-2.6,5.5-4.6,8.7-6c3.2-1.4,8.4-2.9,15.6-4.4c10.8-2.3,17.8-5,21-8.2c2.3-2.3,3.4-5.2,3.3-8.8
		C216.3,163.8,214,159,209.5,153.1z"/>
	<path d="M223.7,167.2l3.2-3.2c0.9,0.7,1.5,1.3,1.9,1.7c6.3,6.3,9.6,13.1,9.9,20.4c0.3,7.3-2.2,13.5-7.3,18.6
		c-2.6,2.6-5.9,4.8-9.8,6.5c-2.6,1.3-7.3,2.5-14.1,3.8c-6.8,1.3-11.3,2.5-13.5,3.5c-3.2,1.3-5.8,2.9-7.6,4.8
		c-2.5,2.5-3.7,5.5-3.6,8.9c0.1,3.4,2.3,8.1,6.7,14.1l-3.1,3.1c-0.6-0.3-1.1-0.6-1.4-1c-4.9-4.9-8.2-11.2-9.7-18.8
		c-1.5-7.6,0.8-14.5,7-20.7c2.6-2.6,5.5-4.6,8.7-6c3.2-1.4,8.4-2.9,15.6-4.4c10.8-2.3,17.8-5,21-8.2c2.3-2.3,3.4-5.2,3.3-8.8
		C230.5,178,228.2,173.2,223.7,167.2z"/>
</g>
</svg>
