<?xml version="1.0" encoding="utf-8"?>
<!-- Generator: Adobe Illustrator 15.1.0, SVG Export Plug-In . SVG Version: 6.00 Build 0)  -->
<!DOCTYPE svg PUBLIC "-//W3C//DTD SVG 1.1//EN" "http://www.w3.org/Graphics/SVG/1.1/DTD/svg11.dtd">
<svg version="1.1" id="Layer_1" xmlns="http://www.w3.org/2000/svg" xmlns:xlink="http://www.w3.org/1999/xlink" x="0px" y="0px"
	 width="300px" height="300px" viewBox="0 0 300 300" style="enable-background:new 0 0 300 300;" xml:space="preserve">
<g>
	<path d="M249,169.8c-6.4-11.2-18-19.7-34.8-25.3c15.7-7.1,25.4-17.1,29.1-30.2c-2-0.1-4.1-0.1-6.2-0.1c-10.6,0-20.9,1.1-30.9,3.3
		c-3,3.9-7.3,7.1-13.2,9.5c9.2,8.9,13.8,20.3,13.8,34.2c0,3.1-0.3,6-0.8,8.8c0.2,0.1,0.3,0.2,0.5,0.3h29
		C240.4,170.3,244.8,170.2,249,169.8z"/>
	<path d="M140.8,47.5C113,50.3,86,60.7,60,78.9l19.2,20.6c23.5-15.2,49.2-22.7,77-22.7c2,0,3.9,0,5.8,0.1c0.5-2.1,0.8-4.3,0.8-6.6
		C162.7,59.1,155.4,51.6,140.8,47.5z"/>
	<path d="M146.6,132.8h-22.5v26.9c3.7,0,9,0,15.8,0c11.8,0,22.3,0.5,31.4,1.5c0.2-1.3,0.3-2.7,0.3-4.2
		C171.6,145.8,163.2,137.7,146.6,132.8z"/>
	<path d="M196.8,68.8c0,4.8-0.6,9.4-1.9,13.6c3.7,1.5,6.8,3.4,9.2,5.5c10.7-2.3,21.5-3.5,32.4-3.5c1.8,0,3.5,0.1,5.2,0.1
		c-3.7-9-10.4-16.6-20.4-22.8c-7.9-5-17.3-8.7-28.3-11.2C195.6,56,196.8,62.1,196.8,68.8z"/>
	<path d="M126.2,250.2l22.2-22.2c10.9,10,22.7,17.7,35.4,23.1c17.7-2.5,32.4-7.1,44.1-13.8c16.4-9.4,25.4-22.2,26.9-38.3
		c-9.8-1.2-21.1-1.8-34-1.8c-0.7,0-1.3,0-2,0c-4.7,17.5-26.8,26.2-66.4,26.2c-10.7,0-20.9-1.2-30.6-3.6c-6.7,0.5-13.7,0.8-21.1,0.8
		c-21.1,0-39.4-2.8-54.9-8.4l-0.4,0.4C59,227.1,74.2,237.5,91,244c11,4.3,23.5,7.1,37.4,8.4C127.7,251.7,126.9,251,126.2,250.2z"/>
</g>
</svg>
