<?xml version="1.0" encoding="utf-8"?>
<!-- Generator: Adobe Illustrator 15.1.0, SVG Export Plug-In . SVG Version: 6.00 Build 0)  -->
<!DOCTYPE svg PUBLIC "-//W3C//DTD SVG 1.1//EN" "http://www.w3.org/Graphics/SVG/1.1/DTD/svg11.dtd">
<svg version="1.1" id="Layer_1" xmlns="http://www.w3.org/2000/svg" xmlns:xlink="http://www.w3.org/1999/xlink" x="0px" y="0px"
	 width="300px" height="300px" viewBox="0 0 300 300" style="enable-background:new 0 0 300 300;" xml:space="preserve">
<g>
	<rect x="206.9" y="209.6" width="54" height="54"/>
	<rect x="39.1" y="209.6" width="54" height="54"/>
	<rect x="206.9" y="151.9" width="54" height="54"/>
	<rect x="206.9" y="94.1" width="54" height="54"/>
	<rect x="206.9" y="36.3" width="54" height="54"/>
	<path d="M151,69.3c-0.6,0-1.3,0-1.9-0.1v-33H95v54h0.7c-0.9,1.4-1.8,3-2.6,4.5v-0.8h-54v54h54V107l1.9,0.3v40.8h38.2l-0.3,3.7H95
		v23.9l-1.9,0.3v-24.1h-54v54h54v-13.8c0.6,1,1.2,2.1,1.9,3v10.7h10c1.8,1.4,3.7,2.6,5.7,3.7H95v54h54V217c0.6,0,1.3,0,1.9,0v46.7
		h54v-54h-23.4c2-1.1,3.9-2.4,5.6-3.7H205v-54h-4.3c-0.7-1.3-1.6-2.6-2.5-3.7h6.8v-54h-9.5c-0.5-1.3-1-2.5-1.7-3.7H205v-54h-54V69.3
		z M151,121.8c-0.6,0.4-1.2,0.8-1.9,1.1V94.6c0.7,0.2,1.3,0.4,1.9,0.7V121.8z M140.6,94.1c1-0.1,2-0.2,3.1-0.2
		c1.1,0,2.1,0.1,3.1,0.2H140.6z M151,151.9v40.4c-0.6,0.2-1.3,0.3-1.9,0.4v-40.8h-12.4c3.7-0.9,6.8-1.4,9.2-1.4
		c2.9,0,5.5,0.5,7.8,1.4H151z"/>
	<rect x="39.1" y="36.3" width="54" height="54"/>
</g>
</svg>
