<?xml version="1.0" encoding="utf-8"?>
<!-- Generator: Adobe Illustrator 15.1.0, SVG Export Plug-In . SVG Version: 6.00 Build 0)  -->
<!DOCTYPE svg PUBLIC "-//W3C//DTD SVG 1.1//EN" "http://www.w3.org/Graphics/SVG/1.1/DTD/svg11.dtd">
<svg version="1.1" id="Layer_1" xmlns="http://www.w3.org/2000/svg" xmlns:xlink="http://www.w3.org/1999/xlink" x="0px" y="0px"
	 width="300px" height="300px" viewBox="0 0 300 300" style="enable-background:new 0 0 300 300;" xml:space="preserve">
<g>
	<path d="M231.5,104l-2.9-31.2l-5.2,2.9l-2.6-9.1l-10.5,16.4l-53.1,30.1l-33-12.7l5-8.8l-5.9-19.5L83.3,44l14.1,46.2L68.2,78.9
		L78,106c3.7-0.9,7.6-1.3,11.6-1.3c4.3,0,8.5,0.5,12.7,1.5l6.5,21.4l8.6-15.3c8.1,4.7,15,11.4,19.6,19.3L119.6,163l8.3,27.3
		c-10.1,9.6-24,15.6-38.3,15.6c-3.4,0-6.7-0.3-9.9-1l3.9,17.6l37.2,0.3l14.3-9.3l3.3,10.7l2.2,24.2l8.7-13.7l30,21.2l-14.1-46.2
		l1.9-3.1l59.7,16.1l2.6-20.8c-5.3,1.9-11.1,3-17.1,3c-13.9,0-26-5.6-34.7-14.6l53-83.2c0.4,0.2,0.8,0.3,1.2,0.5l-0.2-2.1l0.2-0.3
		L231.5,104z M191,132.7c-3.8,1.1-7.8-0.2-10.3-3l-17.2,27c0-0.8-0.1-1.6-0.1-2.5c0-21.9,12.9-40.6,32-47.6l-0.9,1.5l3.5,12.1
		C199.4,125.6,196.3,131.2,191,132.7z"/>
</g>
</svg>
