<?xml version="1.0" encoding="utf-8"?>
<!-- Generator: Adobe Illustrator 15.1.0, SVG Export Plug-In . SVG Version: 6.00 Build 0)  -->
<!DOCTYPE svg PUBLIC "-//W3C//DTD SVG 1.1//EN" "http://www.w3.org/Graphics/SVG/1.1/DTD/svg11.dtd">
<svg version="1.1" id="Layer_1" xmlns="http://www.w3.org/2000/svg" xmlns:xlink="http://www.w3.org/1999/xlink" x="0px" y="0px"
	 width="300px" height="300px" viewBox="0 0 300 300" style="enable-background:new 0 0 300 300;" xml:space="preserve">
<g>
	<path d="M114.3,159.1l-35.7,79.4l-35.2-79.4h27.4l8.1,20.6l8.9-20.6H114.3z"/>
	<path d="M194.6,130.9L149,241.5l-45.3-110.6h36l9.6,32.6l10.6-32.6H194.6z"/>
	<path d="M256.7,159.1L221,238.5l-35.2-79.4h27.4l8.1,20.6l8.9-20.6H256.7z"/>
	<path d="M185.7,140.9l35.7-79.4l35.2,79.4h-27.4l-8.1-20.6l-8.9,20.6H185.7z"/>
	<path d="M105.4,169.1L151,58.5l45.3,110.6h-36l-9.6-32.6l-10.6,32.6H105.4z"/>
	<path d="M43.3,140.9L79,61.5l35.2,79.4H86.9l-8.1-20.6l-8.9,20.6H43.3z"/>
</g>
</svg>
