<?xml version="1.0" encoding="utf-8"?>
<!-- Generator: Adobe Illustrator 15.1.0, SVG Export Plug-In . SVG Version: 6.00 Build 0)  -->
<!DOCTYPE svg PUBLIC "-//W3C//DTD SVG 1.1//EN" "http://www.w3.org/Graphics/SVG/1.1/DTD/svg11.dtd">
<svg version="1.1" id="Layer_1" xmlns="http://www.w3.org/2000/svg" xmlns:xlink="http://www.w3.org/1999/xlink" x="0px" y="0px"
	 width="300px" height="300px" viewBox="0 0 300 300" style="enable-background:new 0 0 300 300;" xml:space="preserve">
<path d="M210.9,130.9c7.7,0.5,14.4,3.6,20.1,9.2c6.6,6.6,12,15.7,16,27.2l16.8-16.8c-2.1-4.7-4-8.4-5.7-11c-1.7-2.6-3.9-5.5-6.5-8.8
	c-2.7-3.3-5.2-6.1-7.6-8.5c-8.3-8.3-17.4-14.3-27.3-18c-5.5-2.1-10.9-3.3-16.1-3.7c0.4-5.7-0.3-11.5-2.3-17.5
	c-2.5-7.5-7.9-15.4-16.1-23.6c-3.7-3.7-7.7-7.3-11.8-10.8c-4.2-3.5-10.6-7.3-19.2-11.4l-16.6,16.6c12.3,4.9,21.6,10.6,28,17
	c6,6,9,11.7,8.9,17c0,3.3-0.9,6.4-2.6,9.3l-46.5-46.5l-11.6,11.6l45.8,45.8c-4.1,1.8-8.6,2.5-13.6,2c-8.6-0.8-17.7-5.9-27.1-15.3
	l-1.9-1.9l-15.5,15.5l3,3c5.4,5.4,9.5,11.3,12.5,17.7c2.9,6.4,3.9,12.4,2.7,18c-0.4,2-1,3.9-1.8,5.7l-45.2-45.2l-11.6,11.6
	l46.2,46.2c-4.5,2.8-9.5,4.1-15.2,3.8c-7.7-0.5-14.4-3.6-20.1-9.2c-6.6-6.6-12-15.7-16-27.2l-16.8,16.8c2.1,4.7,4,8.4,5.7,11
	c1.7,2.6,3.9,5.5,6.5,8.8c2.7,3.3,5.2,6.1,7.6,8.5c8.3,8.3,17.4,14.3,27.3,18c5.5,2.1,10.9,3.3,16.1,3.7c-0.4,5.7,0.3,11.5,2.3,17.5
	c2.5,7.5,7.9,15.4,16.1,23.6c3.7,3.7,7.7,7.3,11.8,10.8c4.2,3.5,10.6,7.3,19.2,11.4l16.6-16.6c-12.3-4.9-21.6-10.6-28-17
	c-6-6-9-11.7-8.9-17c0.1-5.4,2.3-10.3,6.8-14.8c0.2-0.2,0.4-0.4,0.6-0.5l35.9,36l11.6-11.6l-31.4-31.4c1.6-0.1,3.2-0.1,4.9,0
	c8.6,0.8,17.7,5.9,27.1,15.3l1.9,1.9l15.5-15.5l-3-3c-5.4-5.4-9.5-11.3-12.5-17.7c-2.9-6.4-3.9-12.4-2.7-18
	c0.9-4.7,2.9-8.8,5.9-12.3l35.4,35.4l11.6-11.6l-32.9-32.9C205.7,131,208.2,130.8,210.9,130.9z M144.9,165.7
	c0.2-0.9,0.4-1.8,0.5-2.7c1.6-10-1.6-22-9.5-36.1c7,3.7,13.4,6.2,19.2,7.5c-0.2,0.9-0.4,1.8-0.5,2.7c-1.6,10,1.6,22,9.5,36.1
	C157.1,169.4,150.7,166.9,144.9,165.7z"/>
</svg>
