<?xml version="1.0" encoding="utf-8"?>
<!-- Generator: Adobe Illustrator 15.1.0, SVG Export Plug-In . SVG Version: 6.00 Build 0)  -->
<!DOCTYPE svg PUBLIC "-//W3C//DTD SVG 1.1//EN" "http://www.w3.org/Graphics/SVG/1.1/DTD/svg11.dtd">
<svg version="1.1" id="Layer_1" xmlns="http://www.w3.org/2000/svg" xmlns:xlink="http://www.w3.org/1999/xlink" x="0px" y="0px"
	 width="300px" height="300px" viewBox="0 0 300 300" style="enable-background:new 0 0 300 300;" xml:space="preserve">
<path d="M213.3,210.1c0-0.8,0-1.8-0.1-2.9c-4.6-1.2-8.1-2.5-10.5-3.9c-1.7-1-3.4-2.2-5-3.7l-20.3-59.9l7.5-22.2
	c1.4-1.2,2.7-2.3,4.1-3.1c4.7-2.9,9.5-4.7,14.5-5.4c2.1-0.4,3.9-0.7,5.4-1.1c0.2-0.7,0.3-1.3,0.3-1.8c0-0.9-0.6-1.7-1.8-2.2H201
	c-2.6,0-6.3,0.1-11.3,0.2c-0.1,0-0.2,0-0.2,0l13.1-38.5h2.8l1.8-7.1h-49.5c-1.9,7.7-4.4,20-7.5,37l1.6,2.2l6.3-9l-8,36h-0.6
	l-3.5-15.9l1-0.1c0.4-0.8,0.5-1.5,0.5-1.9c0-0.6-0.3-1.6-1-2.9h-1.6l-9.2-41.5h-1.5c-0.3-1.3-0.5-2.5-0.8-3.8H86.7l1.9,7.1h1.9
	l12.6,38.3c-0.6,0-1.1,0-1.7-0.1h-5.1c-1.7,0-3.4,0.2-4.8,0.6v1.8c0,0.9,0.1,1.9,0.3,3.1c1.6,0.4,4.2,0.9,8,1.7
	c2.5,0.5,4.5,1.1,5.9,1.9c0.2,0.1,0.4,0.3,0.6,0.4l8.7,26.3l-21.8,67.8c-0.2,0.1-0.3,0.1-0.5,0.2l-0.3,1.8c0,0.1,0,0.2,0,0.3
	l-4.5,14.1h39.4l-5.5,7.7H89.2l-2.5,9.9h46.6c2.1-9.5,4.1-19.2,6-29.1c1.7,0.1,3.3,0.1,5,0.2c0.2-1.2,0.3-2.1,0.3-2.7
	c0-0.7-0.1-1.6-0.4-2.8c-0.9-0.3-2.1-0.6-3.7-0.9c0.1-0.5,0.2-0.9,0.3-1.3l-0.9,1.2c-1-0.2-2-0.4-3.3-0.7c-1.8-0.4-3.4-0.8-4.8-1.2
	l5.4-23.9c3.2-4.8,6.3-8.8,9.1-12l10.9,48.1l-7-10c2.1,10.8,4.6,22.5,7.4,35.2h54.2l-2.8-9.9h-40.9l-5.5-7.7h43.2l-3.9-11.5
	c6.1,0.2,9.7,0.3,10.7,0.3C213.1,211.6,213.3,210.7,213.3,210.1z M135.5,212.2l-8.1,11.4l2.6-11.5
	C131.9,212.1,133.7,212.1,135.5,212.2z M140.1,167.6l2.5-11l1.6,1.9l0.6,2.7C143.2,163.5,141.6,165.6,140.1,167.6z"/>
</svg>
