<?xml version="1.0" encoding="utf-8"?>
<!-- Generator: Adobe Illustrator 15.1.0, SVG Export Plug-In . SVG Version: 6.00 Build 0)  -->
<!DOCTYPE svg PUBLIC "-//W3C//DTD SVG 1.1//EN" "http://www.w3.org/Graphics/SVG/1.1/DTD/svg11.dtd">
<svg version="1.1" id="Layer_1" xmlns="http://www.w3.org/2000/svg" xmlns:xlink="http://www.w3.org/1999/xlink" x="0px" y="0px"
	 width="300px" height="300px" viewBox="0 0 300 300" style="enable-background:new 0 0 300 300;" xml:space="preserve">
<g>
	<polygon points="168.1,106.2 168.1,47.1 131.9,47.1 131.9,106.1 150.1,124.3 	"/>
	<polygon points="131.9,193.8 131.9,252.9 168.1,252.9 168.1,193.9 149.9,175.7 	"/>
	<polygon points="106,131.8 45.7,131.8 45.7,168.2 106.1,168.2 124.3,150.1 	"/>
	<polygon points="254.3,131.8 193.9,131.8 175.7,149.9 194,168.2 254.3,168.2 	"/>
	<polygon points="193.9,131.8 235.5,90.1 209.9,64.5 168.1,106.2 168.1,131.8 	"/>
	<polygon points="131.9,106.1 89.1,63.3 63.3,89.1 106,131.8 131.9,131.8 	"/>
	<polygon points="106.1,168.2 64.5,209.9 90.1,235.5 131.9,193.8 131.9,168.2 	"/>
	<polygon points="168.1,193.9 210.9,236.7 236.7,210.9 194,168.2 168.1,168.2 	"/>
</g>
</svg>
