<?xml version="1.0" encoding="utf-8"?>
<!-- Generator: Adobe Illustrator 15.1.0, SVG Export Plug-In . SVG Version: 6.00 Build 0)  -->
<!DOCTYPE svg PUBLIC "-//W3C//DTD SVG 1.1//EN" "http://www.w3.org/Graphics/SVG/1.1/DTD/svg11.dtd">
<svg version="1.1" id="Layer_1" xmlns="http://www.w3.org/2000/svg" xmlns:xlink="http://www.w3.org/1999/xlink" x="0px" y="0px"
	 width="300px" height="300px" viewBox="0 0 300 300" style="enable-background:new 0 0 300 300;" xml:space="preserve">
<g>
	<polygon points="155.6,98.2 136.6,118.1 155.6,118.1 	"/>
	<polygon points="106.5,68.3 116.2,68.3 116.2,84.9 155.6,84.9 155.6,67 235.2,67 235.2,88.8 240.8,88.8 240.8,94.7 253.2,81.8 
		253.2,36.3 54.4,36.3 54.4,84.9 106.5,84.9 	"/>
	<polygon points="125.6,214.8 175.6,162.7 159.4,162.7 159.4,153.9 184,153.9 191,146.7 155.6,146.7 155.6,126.8 128.2,126.8 
		119.9,135.4 145,135.4 145,144.2 138.3,144.2 138.3,146.8 109,146.8 102.7,153.4 155.7,153.4 155.7,163.1 106,163.1 106,208.2 
		97.3,208.2 97.3,159.1 88.6,168.1 88.6,191.9 79.9,191.9 79.9,177.2 70.4,187.1 70.4,231.8 42.1,231.8 42.1,263.7 257.9,263.7 
		257.9,214.8 	"/>
</g>
</svg>
