<?xml version="1.0" encoding="utf-8"?>
<!-- Generator: Adobe Illustrator 15.1.0, SVG Export Plug-In . SVG Version: 6.00 Build 0)  -->
<!DOCTYPE svg PUBLIC "-//W3C//DTD SVG 1.1//EN" "http://www.w3.org/Graphics/SVG/1.1/DTD/svg11.dtd">
<svg version="1.1" id="Layer_1" xmlns="http://www.w3.org/2000/svg" xmlns:xlink="http://www.w3.org/1999/xlink" x="0px" y="0px"
	 width="300px" height="300px" viewBox="0 0 300 300" style="enable-background:new 0 0 300 300;" xml:space="preserve">
<polygon points="125.6,214.7 175.6,162.6 159.4,162.6 159.4,153.9 183.9,153.9 192.2,145.3 175.6,145.3 175.6,136.6 182.3,136.6 
	182.3,134 203,134 209.3,127.4 164.9,127.4 164.9,117.7 214.5,117.7 214.5,72.7 223.2,72.7 223.2,112.9 231.9,103.9 231.9,88.9 
	240.6,88.9 240.6,94.8 253,81.9 253,36.6 54.6,36.6 54.6,85 106.6,85 106.6,68.5 116.2,68.5 116.2,85 168.4,85 136.6,118.1 
	161.3,118.1 161.3,126.8 128.3,126.8 120,135.5 145,135.5 145,144.2 138.4,144.2 138.4,146.8 109.1,146.8 102.8,153.4 155.7,153.4 
	155.7,163 106.1,163 106.1,208.1 97.4,208.1 97.4,159 88.8,168 88.8,191.8 80.1,191.8 80.1,177.1 42.4,216.4 42.4,263.4 
	257.6,263.4 257.6,214.7 "/>
</svg>
